<svg xmlns="http://www.w3.org/2000/svg" viewBox="0 0 1491.823 1491.823">
  <defs>
    <style>
      .cls-1 {
        fill: #e4b923;
      }

      .cls-2 {
        fill: #20b2be;
      }

      .cls-3 {
        fill: none;
        stroke: #e4b923;
        stroke-miterlimit: 10;
      }
    </style>
  </defs>
  <g id="Group_86" data-name="Group 86" transform="matrix(-0.966, 0.259, -0.259, -0.966, 1491.823, 1176.563)">
    <path id="Path_66" data-name="Path 66" class="cls-1" d="M940.3,519.726V420.335a41.81,41.81,0,0,0-41.748-41.749H867.711a45.966,45.966,0,0,1-43.647-31.074,392.572,392.572,0,0,0-17.078-41.037,46.284,46.284,0,0,1,9.014-52.9l21.824-21.823a41.663,41.663,0,0,0,0-59.065l-70.214-70.214a41.377,41.377,0,0,0-58.828,0L686.958,124.3a46.284,46.284,0,0,1-52.9,9.014,396.636,396.636,0,0,0-41.275-17.079,46.282,46.282,0,0,1-31.074-43.646V41.749A41.81,41.81,0,0,0,519.963,0H420.572a41.81,41.81,0,0,0-41.749,41.749V72.586a45.965,45.965,0,0,1-31.074,43.646,419.387,419.387,0,0,0-41.275,17.079,46.285,46.285,0,0,1-52.9-9.014l-21.823-21.823a41.663,41.663,0,0,0-59.066,0l-70.214,70.214a41.662,41.662,0,0,0,0,59.065L124.3,253.577a46.286,46.286,0,0,1,9.015,52.9,415.093,415.093,0,0,0-17.079,41.037,46.282,46.282,0,0,1-43.646,31.074H41.749A41.81,41.81,0,0,0,0,420.335v99.391a41.81,41.81,0,0,0,41.749,41.749H72.586a45.964,45.964,0,0,1,43.646,31.074,419.245,419.245,0,0,0,17.079,41.275,46.284,46.284,0,0,1-9.015,52.9l-21.823,21.823a41.662,41.662,0,0,0,0,59.065l70.214,70.214a41.663,41.663,0,0,0,59.066,0L253.577,816a46.285,46.285,0,0,1,52.9-9.014,396.743,396.743,0,0,0,41.275,17.079,46.281,46.281,0,0,1,31.074,43.647v30.837A41.81,41.81,0,0,0,420.572,940.3h99.391a41.81,41.81,0,0,0,41.748-41.749V867.712a45.964,45.964,0,0,1,31.074-43.647,396.57,396.57,0,0,0,41.275-17.079,46.285,46.285,0,0,1,52.9,9.014l21.823,21.823a41.378,41.378,0,0,0,58.828,0l70.214-70.214a41.664,41.664,0,0,0,0-59.065L816,686.721a46.285,46.285,0,0,1-9.014-52.9,396.637,396.637,0,0,0,17.078-41.275,46.283,46.283,0,0,1,43.647-31.074h30.838A41.81,41.81,0,0,0,940.3,519.726ZM488.651,695.735A226.269,226.269,0,0,1,244.8,451.884C253.34,342.293,342.293,253.34,451.884,244.8c139.479-10.912,255,104.372,243.851,243.851C687.195,598.242,598.242,686.958,488.651,695.735Z" transform="translate(138.767 139.004)"/>
    <path id="Path_67" data-name="Path 67" class="cls-2" d="M1218.069,673.437v-128.8a54.06,54.06,0,0,0-54.084-54.084H1123.9a59.832,59.832,0,0,1-56.456-40.089,526.051,526.051,0,0,0-22.06-53.372A60,60,0,0,1,1057,328.534l28.228-28.228a53.976,53.976,0,0,0,0-76.381l-91.088-91.088a53.975,53.975,0,0,0-76.382,0l-28.228,28.228a60,60,0,0,1-68.553,11.623,476.485,476.485,0,0,0-53.372-22.06A59.833,59.833,0,0,1,727.52,94.172V54.084A54.06,54.06,0,0,0,673.436,0h-128.8a54.06,54.06,0,0,0-54.084,54.084V94.172a59.833,59.833,0,0,1-40.088,56.456,525.7,525.7,0,0,0-53.372,22.06,60,60,0,0,1-68.553-11.623l-28.228-28.228a53.975,53.975,0,0,0-76.382,0l-91.088,91.088a53.975,53.975,0,0,0,0,76.381l28.228,28.228a60,60,0,0,1,11.623,68.553,476.412,476.412,0,0,0-22.06,53.372,59.514,59.514,0,0,1-56.456,40.089H54.084A54.059,54.059,0,0,0,0,544.632v128.8A54.059,54.059,0,0,0,54.084,727.52H94.172a59.833,59.833,0,0,1,56.456,40.088,525.9,525.9,0,0,0,22.06,53.372,60,60,0,0,1-11.623,68.553l-28.228,28.228a53.975,53.975,0,0,0,0,76.382l91.088,91.089a53.975,53.975,0,0,0,76.382,0L328.535,1057a60,60,0,0,1,68.553-11.623,525.661,525.661,0,0,0,53.373,22.06,59.514,59.514,0,0,1,40.088,56.455v40.089a54.059,54.059,0,0,0,54.084,54.083h128.8a54.059,54.059,0,0,0,54.084-54.083V1123.9a59.833,59.833,0,0,1,40.088-56.455,525.793,525.793,0,0,0,53.372-22.06A60,60,0,0,1,889.534,1057l28.228,28.228a53.975,53.975,0,0,0,76.382,0l91.088-91.088a53.976,53.976,0,0,0,0-76.382L1057,889.534a60,60,0,0,1-11.623-68.554,476.6,476.6,0,0,0,22.06-53.372A59.833,59.833,0,0,1,1123.9,727.52h40.088A54.06,54.06,0,0,0,1218.069,673.437Zm-585.2,227.958C452.12,915.627,302.441,765.948,316.911,585.431,328.06,443.344,443.344,328.06,585.432,316.911,766.186,302.679,915.864,452.358,901.4,632.874,890.246,774.962,774.962,890.246,632.873,901.394Z" transform="translate(0 0)"/>
    <ellipse id="Ellipse_10" data-name="Ellipse 10" class="cls-3" cx="390.921" cy="390.921" rx="390.921" ry="390.921" transform="matrix(0.664, -0.748, 0.748, 0.664, 57.32, 642.202)"/>
    <path id="Path_68" data-name="Path 68" class="cls-3" d="M0,390.921C0,175.06,175.061,0,390.921,0" transform="translate(217.995 218.232)"/>
  </g>
</svg>
