<svg xmlns="http://www.w3.org/2000/svg" viewBox="0 0 1574.764 1771.877">
  <defs>
    <style>
      .cls-1 {
        fill: #e4b923;
      }

      .cls-2 {
        fill: #b12a2a;
      }

      .cls-3 {
        fill: none;
        stroke: #e4b923;
        stroke-miterlimit: 10;
      }

      .cls-4 {
        fill: #20b2be;
      }
    </style>
  </defs>
  <g id="Group_95" data-name="Group 95" transform="translate(-738.009 279.585)">
    <g id="Group_85" data-name="Group 85" transform="matrix(-0.809, 0.588, -0.588, -0.809, 1458, 137.428)">
      <path id="Path_66" data-name="Path 66" class="cls-1" d="M397.911,219.935v-42.06a17.693,17.693,0,0,0-17.667-17.667h-13.05a19.451,19.451,0,0,1-18.47-13.15,166.129,166.129,0,0,0-7.227-17.366,19.586,19.586,0,0,1,3.814-22.385l9.235-9.235a17.631,17.631,0,0,0,0-24.995L324.833,43.365a17.51,17.51,0,0,0-24.895,0L290.7,52.6a19.586,19.586,0,0,1-22.385,3.814,167.85,167.85,0,0,0-17.467-7.227,19.585,19.585,0,0,1-13.15-18.47V17.667A17.693,17.693,0,0,0,220.036,0h-42.06a17.693,17.693,0,0,0-17.667,17.667v13.05a19.451,19.451,0,0,1-13.15,18.47,177.476,177.476,0,0,0-17.466,7.227A19.587,19.587,0,0,1,107.307,52.6l-9.235-9.235a17.631,17.631,0,0,0-25,0L43.365,73.078a17.63,17.63,0,0,0,0,24.995l9.235,9.235a19.587,19.587,0,0,1,3.815,22.385,175.671,175.671,0,0,0-7.228,17.366,19.585,19.585,0,0,1-18.47,13.15H17.667A17.693,17.693,0,0,0,0,177.875v42.06A17.693,17.693,0,0,0,17.667,237.6h13.05a19.451,19.451,0,0,1,18.47,13.15,177.431,177.431,0,0,0,7.228,17.466A19.586,19.586,0,0,1,52.6,290.6l-9.235,9.235a17.63,17.63,0,0,0,0,24.995l29.713,29.713a17.631,17.631,0,0,0,25,0l9.235-9.235a19.587,19.587,0,0,1,22.385-3.814,167.878,167.878,0,0,0,17.466,7.228,19.585,19.585,0,0,1,13.15,18.47v13.05a17.693,17.693,0,0,0,17.667,17.667h42.06A17.693,17.693,0,0,0,237.7,380.244v-13.05a19.451,19.451,0,0,1,13.15-18.47,167.813,167.813,0,0,0,17.467-7.227,19.587,19.587,0,0,1,22.385,3.815l9.235,9.235a17.51,17.51,0,0,0,24.895,0l29.713-29.713a17.631,17.631,0,0,0,0-25l-9.235-9.235a19.587,19.587,0,0,1-3.814-22.385,167.834,167.834,0,0,0,7.227-17.466,19.586,19.586,0,0,1,18.47-13.15h13.05A17.693,17.693,0,0,0,397.911,219.935ZM206.785,294.418A95.751,95.751,0,0,1,103.593,191.226c3.614-46.376,41.257-84.019,87.633-87.633A95.7,95.7,0,0,1,294.418,206.785C290.8,253.161,253.161,290.7,206.785,294.418Z" transform="translate(58.723 58.823)"/>
      <path id="Path_67" data-name="Path 67" class="cls-2" d="M515.457,284.982V230.475a22.877,22.877,0,0,0-22.887-22.887H475.606a25.32,25.32,0,0,1-23.891-16.965,222.6,222.6,0,0,0-9.335-22.586,25.389,25.389,0,0,1,4.919-29.01l11.945-11.945a22.841,22.841,0,0,0,0-32.323L420.7,56.213a22.841,22.841,0,0,0-32.323,0L376.429,68.159a25.389,25.389,0,0,1-29.01,4.918,201.641,201.641,0,0,0-22.586-9.335,25.32,25.32,0,0,1-16.964-23.891V22.887A22.877,22.877,0,0,0,284.982,0H230.475a22.877,22.877,0,0,0-22.887,22.887V39.851a25.32,25.32,0,0,1-16.964,23.891,222.471,222.471,0,0,0-22.586,9.335,25.389,25.389,0,0,1-29.01-4.919L127.082,56.213a22.841,22.841,0,0,0-32.323,0L56.213,94.76a22.841,22.841,0,0,0,0,32.323l11.946,11.945a25.389,25.389,0,0,1,4.919,29.01,201.614,201.614,0,0,0-9.335,22.586,25.185,25.185,0,0,1-23.891,16.964H22.887A22.877,22.877,0,0,0,0,230.475v54.507a22.877,22.877,0,0,0,22.887,22.887H39.851a25.32,25.32,0,0,1,23.891,16.964,222.546,222.546,0,0,0,9.335,22.586,25.389,25.389,0,0,1-4.919,29.01L56.213,388.374a22.841,22.841,0,0,0,0,32.323L94.76,459.243a22.841,22.841,0,0,0,32.323,0L139.028,447.3a25.389,25.389,0,0,1,29.01-4.919,222.456,222.456,0,0,0,22.586,9.335,25.185,25.185,0,0,1,16.964,23.891V492.57a22.877,22.877,0,0,0,22.887,22.887h54.507a22.877,22.877,0,0,0,22.887-22.887V475.605a25.32,25.32,0,0,1,16.964-23.891,222.53,222.53,0,0,0,22.586-9.335,25.389,25.389,0,0,1,29.01,4.919l11.945,11.946a22.841,22.841,0,0,0,32.323,0L459.244,420.7a22.841,22.841,0,0,0,0-32.323L447.3,376.429a25.389,25.389,0,0,1-4.919-29.01,201.688,201.688,0,0,0,9.335-22.586,25.32,25.32,0,0,1,23.891-16.964H492.57A22.877,22.877,0,0,0,515.457,284.982Zm-247.64,96.466A124.016,124.016,0,0,1,134.109,247.74c4.718-60.128,53.5-108.913,113.632-113.631A124.017,124.017,0,0,1,381.448,267.817C376.73,327.945,327.945,376.73,267.816,381.448Z" transform="translate(0 0)"/>
      <ellipse id="Ellipse_10" data-name="Ellipse 10" class="cls-3" cx="165.428" cy="165.428" rx="165.428" ry="165.428" transform="matrix(0.664, -0.748, 0.748, 0.664, 24.257, 271.764)"/>
      <path id="Path_68" data-name="Path 68" class="cls-3" d="M0,165.428A165.449,165.449,0,0,1,165.428,0" transform="translate(92.25 92.351)"/>
    </g>
    <g id="Group_86" data-name="Group 86" transform="matrix(-0.966, 0.259, -0.259, -0.966, 2312.772, 1177.033)">
      <path id="Path_66-2" data-name="Path 66" class="cls-1" d="M940.3,519.726V420.335a41.81,41.81,0,0,0-41.748-41.749H867.711a45.966,45.966,0,0,1-43.647-31.074,392.572,392.572,0,0,0-17.078-41.037,46.284,46.284,0,0,1,9.014-52.9l21.824-21.823a41.663,41.663,0,0,0,0-59.065l-70.214-70.214a41.377,41.377,0,0,0-58.828,0L686.958,124.3a46.284,46.284,0,0,1-52.9,9.014,396.636,396.636,0,0,0-41.275-17.079,46.282,46.282,0,0,1-31.074-43.646V41.749A41.81,41.81,0,0,0,519.963,0H420.572a41.81,41.81,0,0,0-41.749,41.749V72.586a45.965,45.965,0,0,1-31.074,43.646,419.387,419.387,0,0,0-41.275,17.079,46.285,46.285,0,0,1-52.9-9.014l-21.823-21.823a41.663,41.663,0,0,0-59.066,0l-70.214,70.214a41.662,41.662,0,0,0,0,59.065L124.3,253.577a46.286,46.286,0,0,1,9.015,52.9,415.093,415.093,0,0,0-17.079,41.037,46.282,46.282,0,0,1-43.646,31.074H41.749A41.81,41.81,0,0,0,0,420.335v99.391a41.81,41.81,0,0,0,41.749,41.749H72.586a45.964,45.964,0,0,1,43.646,31.074,419.245,419.245,0,0,0,17.079,41.275,46.284,46.284,0,0,1-9.015,52.9l-21.823,21.823a41.662,41.662,0,0,0,0,59.065l70.214,70.214a41.663,41.663,0,0,0,59.066,0L253.577,816a46.285,46.285,0,0,1,52.9-9.014,396.743,396.743,0,0,0,41.275,17.079,46.281,46.281,0,0,1,31.074,43.647v30.837A41.81,41.81,0,0,0,420.572,940.3h99.391a41.81,41.81,0,0,0,41.748-41.749V867.712a45.964,45.964,0,0,1,31.074-43.647,396.57,396.57,0,0,0,41.275-17.079,46.285,46.285,0,0,1,52.9,9.014l21.823,21.823a41.378,41.378,0,0,0,58.828,0l70.214-70.214a41.664,41.664,0,0,0,0-59.065L816,686.721a46.285,46.285,0,0,1-9.014-52.9,396.637,396.637,0,0,0,17.078-41.275,46.283,46.283,0,0,1,43.647-31.074h30.838A41.81,41.81,0,0,0,940.3,519.726ZM488.651,695.735A226.269,226.269,0,0,1,244.8,451.884C253.34,342.293,342.293,253.34,451.884,244.8c139.479-10.912,255,104.372,243.851,243.851C687.195,598.242,598.242,686.958,488.651,695.735Z" transform="translate(138.767 139.004)"/>
      <path id="Path_67-2" data-name="Path 67" class="cls-4" d="M1218.069,673.437v-128.8a54.06,54.06,0,0,0-54.084-54.084H1123.9a59.832,59.832,0,0,1-56.456-40.089,526.051,526.051,0,0,0-22.06-53.372A60,60,0,0,1,1057,328.534l28.228-28.228a53.976,53.976,0,0,0,0-76.381l-91.088-91.088a53.975,53.975,0,0,0-76.382,0l-28.228,28.228a60,60,0,0,1-68.553,11.623,476.485,476.485,0,0,0-53.372-22.06A59.833,59.833,0,0,1,727.52,94.172V54.084A54.06,54.06,0,0,0,673.436,0h-128.8a54.06,54.06,0,0,0-54.084,54.084V94.172a59.833,59.833,0,0,1-40.088,56.456,525.7,525.7,0,0,0-53.372,22.06,60,60,0,0,1-68.553-11.623l-28.228-28.228a53.975,53.975,0,0,0-76.382,0l-91.088,91.088a53.975,53.975,0,0,0,0,76.381l28.228,28.228a60,60,0,0,1,11.623,68.553,476.412,476.412,0,0,0-22.06,53.372,59.514,59.514,0,0,1-56.456,40.089H54.084A54.059,54.059,0,0,0,0,544.632v128.8A54.059,54.059,0,0,0,54.084,727.52H94.172a59.833,59.833,0,0,1,56.456,40.088,525.9,525.9,0,0,0,22.06,53.372,60,60,0,0,1-11.623,68.553l-28.228,28.228a53.975,53.975,0,0,0,0,76.382l91.088,91.089a53.975,53.975,0,0,0,76.382,0L328.535,1057a60,60,0,0,1,68.553-11.623,525.661,525.661,0,0,0,53.373,22.06,59.514,59.514,0,0,1,40.088,56.455v40.089a54.059,54.059,0,0,0,54.084,54.083h128.8a54.059,54.059,0,0,0,54.084-54.083V1123.9a59.833,59.833,0,0,1,40.088-56.455,525.793,525.793,0,0,0,53.372-22.06A60,60,0,0,1,889.534,1057l28.228,28.228a53.975,53.975,0,0,0,76.382,0l91.088-91.088a53.976,53.976,0,0,0,0-76.382L1057,889.534a60,60,0,0,1-11.623-68.554,476.6,476.6,0,0,0,22.06-53.372A59.833,59.833,0,0,1,1123.9,727.52h40.088A54.06,54.06,0,0,0,1218.069,673.437Zm-585.2,227.958C452.12,915.627,302.441,765.948,316.911,585.431,328.06,443.344,443.344,328.06,585.432,316.911,766.186,302.679,915.864,452.358,901.4,632.874,890.246,774.962,774.962,890.246,632.873,901.394Z" transform="translate(0 0)"/>
      <ellipse id="Ellipse_10-2" data-name="Ellipse 10" class="cls-3" cx="390.921" cy="390.921" rx="390.921" ry="390.921" transform="matrix(0.664, -0.748, 0.748, 0.664, 57.32, 642.202)"/>
      <path id="Path_68-2" data-name="Path 68" class="cls-3" d="M0,390.921C0,175.06,175.061,0,390.921,0" transform="translate(217.995 218.232)"/>
    </g>
  </g>
</svg>
