<svg xmlns="http://www.w3.org/2000/svg" viewBox="0 0 709.962 359.532">
  <defs>
    <style>
      .cls-1 {
        opacity: 0.6;
      }

      .cls-2 {
        fill: #f7f7f7;
      }

      .cls-3 {
        fill: #f4d0c1;
      }

      .cls-4 {
        fill: #bcbec0;
      }

      .cls-5 {
        fill: #e4d2b8;
      }

      .cls-6 {
        fill: #3b455a;
      }

      .cls-7 {
        fill: #2a313f;
      }

      .cls-8 {
        fill: #9a2424;
      }

      .cls-9 {
        fill: #c1755d;
      }

      .cls-10 {
        fill: #2e3644;
      }

      .cls-11 {
        fill: #c89149;
      }

      .cls-12 {
        fill: #a1dbe0;
      }

      .cls-13 {
        fill: #d7e8f4;
      }

      .cls-14 {
        fill: #e3e3e4;
      }

      .cls-15 {
        fill: #e6ba25;
      }

      .cls-16 {
        fill: #5d3b0e;
      }

      .cls-17 {
        fill: #305399;
      }

      .cls-18 {
        fill: #fff;
      }

      .cls-19 {
        fill: #cccdce;
      }

      .cls-20 {
        fill: #9d9d9e;
      }

      .cls-21 {
        fill: #eaeaea;
      }

      .cls-22 {
        fill: #b12a2a;
      }

      .cls-23 {
        opacity: 0.12;
      }

      .cls-24 {
        fill: #000100;
      }

      .cls-25 {
        fill: #2b292a;
      }

      .cls-26 {
        fill: #d3aa20;
      }

      .cls-27 {
        fill: #ffd64b;
      }
    </style>
  </defs>
  <g id="Group_88" data-name="Group 88" transform="translate(0 21.796)">
    <g id="Group_18" data-name="Group 18" class="cls-1" transform="translate(11.421 328.736)">
      <path id="Path_81" data-name="Path 81" class="cls-2" d="M328.57,446.11c-18.715.006-37.431.061-56.112.313-7.042.1-13.938.3-21,.388-14.1.168-27.952.482-42.1.627-11.4.117-22.844.185-34.207.333-10.652.138-22.45.107-33.019-.122-7.829-.17-15.692-.266-23.382-.538-8.609-.305-17.956-.523-26.931-.515-12.792.011-25.246.013-37.486.552-4.294.189-9.554.5-12.82.9-7.47.908-8.477,3.175-1.022,4.117,12.557,1.586,39.371,2.208,56.975,2.238,19.3.032,38.031-.142,57.354-.244,17.956-.1,35.864-.23,53.847-.225,36.727.01,73.46,0,110.125-.3,34.442-.279,68.973-.184,103.5-.184,35.4,0,70.561.034,105.7.6,15.312.249,30.914.336,46.3.51,13.779.156,27.027,0,40.751-.147,11.529-.121,22.982-.48,33.448-1.087,8.291-.481,23.065-1.974,25.612-3.12,7.124-3.215-100.439-3.138-116.952-3.131-18.474.008-37.1.082-55.559,0-7.766-.036-15.416-.22-23-.422-7.546-.2-15.153-.15-22.809-.234-31.922-.352-63.919-.3-95.945-.3Q344.22,446.117,328.57,446.11Z" transform="translate(-35.375 -446.109)"/>
    </g>
    <g id="Group_75" data-name="Group 75" transform="translate(0 -21.796)">
      <g id="Group_19" data-name="Group 19" transform="translate(81.434 16.897)">
        <path id="Path_82" data-name="Path 82" class="cls-3" d="M217.11,14.561,218.16,3.336l-4.777-.656L210.959,10.2l-2.119-1.36.276,9.72,4.874,1.353Z" transform="translate(-146.101 -2.68)"/>
        <path id="Path_83" data-name="Path 83" class="cls-4" d="M117.96,77.524l50.05-18.84L180.52,23.69l6.3,2.3L185.9,69.412l-46.84,34.076Z" transform="translate(-117.96 -9.186)"/>
      </g>
      <g id="XMLID_22_" transform="translate(332.894 119.228)">
        <path id="Path_84" data-name="Path 84" class="cls-5" d="M498.212,156.46l-.545,5.613-10.328,2.32-5.129-5.046.835-6.5,5.53.4.359-1.408,1.947-.925Z" transform="translate(-482.21 -150.91)"/>
      </g>
      <g id="Group_25" data-name="Group 25" transform="translate(512.06 22.835)">
        <g id="Group_24" data-name="Group 24" transform="translate(0 0)">
          <g id="Group_20" data-name="Group 20" transform="translate(37.424 182.245)">
            <path id="Path_85" data-name="Path 85" class="cls-6" d="M837.909,282.3l2.209,51.169-6.469,87-9.679.683-11.757-79.018L795.95,275.27Z" transform="translate(-795.95 -275.27)"/>
            <path id="Path_86" data-name="Path 86" class="cls-7" d="M836.876,489.818l10.839,4.487,4.86-5.606-5.606-4.86-10.459.746Z" transform="translate(-808.509 -339.854)"/>
          </g>
          <g id="Group_21" data-name="Group 21" transform="translate(8.761 167.188)">
            <path id="Path_87" data-name="Path 87" class="cls-6" d="M756.549,257.436l-2.119,38.68,6.3,115,9.686.483,14.525-75.421,12.806-82.718Z" transform="translate(-754.43 -253.46)"/>
            <path id="Path_88" data-name="Path 88" class="cls-7" d="M770.162,485.864l-10.735,4.715-4.977-5.5,5.5-4.977,10.473.525Z" transform="translate(-754.436 -323.639)"/>
          </g>
          <g id="Group_22" data-name="Group 22" transform="translate(0 53.991)">
            <path id="Path_89" data-name="Path 89" class="cls-8" d="M808.959,92.728,778.722,89.49s-16.824,1.795-28.235,41.745c-6.351,22.222-8.284,57.237-8.747,83.933.711,3.811,4.86,20.49,22.4,17.659,30.127-4.86,46.157-9.72,59.28-7.29,11.177,2.43,10.231-12.958,9-24.7L827.972,164.5Z" transform="translate(-741.74 -89.49)"/>
          </g>
          <g id="Group_23" data-name="Group 23" transform="translate(22.052)">
            <path id="Path_90" data-name="Path 90" class="cls-9" d="M816.947,38.63c-7.621-1.678-15.464-3.183-23.092-1.678-1.671.331-3.466.911-4.37,2.354a6.633,6.633,0,0,0-.711,1.843c-1.926,7.159-4.37,17.763.345,24.356a11.742,11.742,0,0,0,3.4,3.065,16.614,16.614,0,0,0,5.64,2.209,29.941,29.941,0,0,1-1.705,5.2c1.747,2.63,9.886,2.948,11.391.421q.124-3.272.255-6.545a15.889,15.889,0,0,0,2.844-1.477,18.39,18.39,0,0,0,7.1-9.658c1.45-4.232,3.486-8.263,4.812-12.578.483-1.574.863-3.369.035-4.791-.884-1.512-2.782-2.03-4.487-2.409C817.92,38.844,817.437,38.733,816.947,38.63Z" transform="translate(-777.62 -19.039)"/>
            <path id="Path_91" data-name="Path 91" class="cls-10" d="M787.647,34.959a23.764,23.764,0,0,1,12.958-3.21c10.707.773,14.629,8.636,15.2,18.488,2.948-3.749,8.484-8.464,8.823-13.289.276-3.949-.276-9.334-2.485-12.744-2.071-3.189-7.366-4.943-10.514-6.793q-4.453-2.61-8.906-5.226a5.941,5.941,0,0,0-1.954-.856,5.984,5.984,0,0,0-2.506.283q-10.521,2.723-21.042,5.44c-1.346.345-2.886.856-3.376,2.154a4.407,4.407,0,0,0,.055,2.5c.794,3.638,2.326,7.359,2.706,11.053.428,2.14,1.705,13.124,5.5,11.86,1.111-1.823,1.284-4.066,2.147-6.02A8.777,8.777,0,0,1,787.647,34.959Z" transform="translate(-773.683 -11.281)"/>
          </g>
        </g>
      </g>
      <g id="XMLID_3_" transform="translate(344.464 27.27)">
        <g id="XMLID_5_" transform="translate(0 0)">
          <g id="XMLID_19_" transform="translate(97.465 240.887)">
            <g id="XMLID_21_" transform="translate(0 67.267)">
              <path id="Path_92" data-name="Path 92" class="cls-7" d="M644.417,465.668a3.976,3.976,0,0,1,3.6-1.546,4.073,4.073,0,0,1,3.024,2.278,7.682,7.682,0,0,1,.518,2.589c.38,4.563.345,15.4-5.737,16.962-2.554.656-4.667-1.16-5.35-3.452C639.44,479.047,640.965,469.471,644.417,465.668Z" transform="translate(-640.152 -464.079)"/>
            </g>
            <g id="XMLID_20_" transform="translate(2.104)">
              <path id="Path_93" data-name="Path 93" class="cls-11" d="M643.2,366.64l.318,27.842c-.373,12.364,1.56,24.8,1.187,37.168-.083,2.844-.828,5.84-.11,8.664.7,2.754,2.941,3.245,5.24,1.85,3.079-1.871,2.582-6.241,3.1-9.423,1.408-8.754,3.065-17.473,4.536-26.22.725-4.287-.766-10.3-.442-14.635l4.5-23.334Z" transform="translate(-643.2 -366.64)"/>
            </g>
          </g>
          <g id="XMLID_18_" transform="translate(92.245 157.942)">
            <path id="Path_94" data-name="Path 94" class="cls-6" d="M671.726,284.452,659.6,338.272,657.028,389.1l-19.212-.428L632.59,246.49l37.251.677Z" transform="translate(-632.59 -246.49)"/>
          </g>
          <g id="XMLID_13_" transform="translate(58.5 158.977)">
            <g id="XMLID_15_" transform="translate(7.483 85.817)">
              <g id="XMLID_17_" transform="translate(3.4 62.528)">
                <path id="Path_95" data-name="Path 95" class="cls-7" d="M604.339,464.287a3.9,3.9,0,0,1,3.652-1.332,4.145,4.145,0,0,1,2.913,2.458,7.843,7.843,0,0,1,.407,2.623c.18,4.591-.318,15.436-6.441,16.637-2.575.5-4.6-1.436-5.185-3.769C598.809,477.383,600.735,467.883,604.339,464.287Z" transform="translate(-599.475 -462.875)"/>
              </g>
              <g id="XMLID_16_">
                <path id="Path_96" data-name="Path 96" class="cls-11" d="M612.941,372.3l-1.629,27.794c-.131,7.725-1.16,15.388-1.961,23.065-.746,7.124.414,14.553-3.314,21.035-1.167,2.03-3.528,3.383-5.178.918-1.27-1.905-.518-5.081-.759-7.235-.994-8.816-2.237-17.6-3.293-26.406-.518-4.315,1.25-10.252,1.132-14.6l-3.39-23.513Z" transform="translate(-594.55 -372.3)"/>
              </g>
            </g>
            <g id="XMLID_14_" transform="translate(0 0)">
              <path id="Path_97" data-name="Path 97" class="cls-6" d="M585.27,281.624l-1.56,52.246,8.194,52.839,19.544.587-.863-57.182,10.348-47.427,3.466-31.038-31.011-3.659Z" transform="translate(-583.71 -247.99)"/>
            </g>
          </g>
          <g id="XMLID_12_" transform="translate(65.922 51.248)">
            <path id="Path_98" data-name="Path 98" class="cls-12" d="M613.134,92.741l33.406-.8,19.371,36.029-6.883,33.744L657.8,202.092l-47.655.649-15.685-2.547,4.163-43.147L596.241,99.41Z" transform="translate(-594.46 -91.94)"/>
          </g>
          <g id="XMLID_11_" transform="translate(0 60.333)">
            <path id="Path_99" data-name="Path 99" class="cls-13" d="M578.3,120.55l-12.06,36.982-18,6.462L498.97,150.725,505.6,140.48l43.319,1.415,17.818-36.8Z" transform="translate(-498.97 -105.1)"/>
          </g>
          <g id="XMLID_6_" transform="translate(64.565)">
            <g id="XMLID_10_" transform="translate(20.123 15.326)">
              <path id="Path_100" data-name="Path 100" class="cls-11" d="M623.643,48.635c5.04-14.642,24.369-9.154,28.353,3.88,2.6,8.505-3.97,19.544-12.778,21.988a7.69,7.69,0,0,0-.069.911,27.94,27.94,0,0,1-.38,4.073c-.076.511-7.787-.973-8.65-1.146a1.175,1.175,0,0,1-.8-.394c-.311-.483.193-1.912.248-2.451.069-.635.131-1.27.2-1.905-4.349-2.119-7.09-6.641-7.856-11.239C621.144,57.734,622.124,53.032,623.643,48.635Z" transform="translate(-621.644 -39.906)"/>
            </g>
            <g id="XMLID_7_">
              <g id="XMLID_9_" transform="translate(0 8.747)">
                <path id="Path_101" data-name="Path 101" class="cls-10" d="M627.23,32.45a7.649,7.649,0,0,1,1.74,3.928,6.131,6.131,0,0,1,.152,2.547c-.718,3.327-4.018,3.148-6.565,4.225a17,17,0,0,0-7.615,6.558c-2.755,4.384-1.519,10.031-.4,14.87.394,1.705,1.187,4.239-.138,5.764-1.346,1.546-4.453,1.3-6.061.511-1.47-.725-2.679-2.071-4.294-2.34-1.712-.283-4.018.463-4.812-1.1a10.166,10.166,0,0,0-.525-1.367c-.946-1.353-3.293.228-4.625-.718-.822-.587-.815-1.836-.538-2.824a6.721,6.721,0,0,0,.552-2.989,9.865,9.865,0,0,0-1.174-2.333,4.592,4.592,0,0,1,.635-4.881c2.106-2.437,6.179-1.974,8.436-4.266a9.974,9.974,0,0,0,2.071-4.543,8.7,8.7,0,0,1,2.223-4.453c1.553-1.367,3.79-1.132,5.323-2.748a31.23,31.23,0,0,1,2.506-3.017c1.332-1.091,3.928-1.926,5.585-2.485A7.245,7.245,0,0,1,627.23,32.45Z" transform="translate(-592.495 -30.375)"/>
              </g>
              <g id="XMLID_8_" transform="translate(26.284)">
                <path id="Path_102" data-name="Path 102" class="cls-10" d="M651.246,51.895c.09,4.819-2.306,10.031-.083,14.27,2.244,4.28,7.829,5.053,12.585,5.274.78.035,10.832.9,10.873.711.753-3.355,1.533-6.779,3.286-9.727s4.687-5.392,8.049-5.6c-.966-.166-1.457-1.353-1.346-2.354a15.419,15.419,0,0,1,.932-2.865,6.746,6.746,0,0,0-1.76-6.779c-3.555-3.314-10-1.94-13.041-5.744-1.891-2.361-1.664-5.778-2.651-8.664-1.912-5.571-8.008-6.731-12.571-9.251-4.812-2.658-9.34-4.108-14.891-3.183-6.883,1.146-12,8.153-9.347,14.746,3.4,8.457,17.017,7.725,19.565,16.313A11.411,11.411,0,0,1,651.246,51.895Z" transform="translate(-630.569 -17.705)"/>
              </g>
            </g>
          </g>
        </g>
        <g id="XMLID_4_" transform="translate(84.761 51.248)">
          <path id="Path_103" data-name="Path 103" class="cls-14" d="M645.112,92.548,634.742,107.2l-4.874-.4L621.75,91.94Z" transform="translate(-621.75 -91.94)"/>
        </g>
      </g>
      <g id="Group_30" data-name="Group 30" transform="translate(161.031 25.507)">
        <path id="Path_104" data-name="Path 104" class="cls-7" d="M266.829,473.976l-.759,5.916,11.066,7.435,6.676-5.15-5.15-6.676-11.073-7.442Z" transform="translate(-243.42 -155.395)"/>
        <g id="Group_26" data-name="Group 26" transform="translate(21.297 136.992)">
          <path id="Path_105" data-name="Path 105" class="cls-6" d="M265.85,393.2l8.533-75.441L264.11,233.3l2.313-17.963L312.3,213.59l1.657,29.243-7.7,75.041-28.974,79.176Z" transform="translate(-264.11 -213.59)"/>
        </g>
        <g id="Group_27" data-name="Group 27" transform="translate(56.671 138.131)">
          <path id="Path_106" data-name="Path 106" class="cls-6" d="M361.831,222.558l.124,76.132-15.326,98-11.032-.11-6.061-90.629L315.35,215.24Z" transform="translate(-315.35 -215.24)"/>
          <path id="Path_107" data-name="Path 107" class="cls-7" d="M344.71,481.985l11.867,6.082,6.02-5.909-5.9-6.02-11.929-.117Z" transform="translate(-324.441 -295.99)"/>
        </g>
        <g id="Group_28" data-name="Group 28" transform="translate(16.481 53.019)">
          <path id="Path_108" data-name="Path 108" class="cls-15" d="M257.207,210.27c.1-3.3.29-6.054.318-7.035.235-8.85,1.022-17.68,2.133-26.468.994-7.877,2.244-27.421,3.6-35.249,1.111-6.462,4.991-22.588,7.794-28.58,6.966-14.9,4.812-16.278,35.415-20.7,13.414-1.94,16.582,6.42,27.545,16.03,1.084.946,1.022,6.593,1.27,8.084.442,2.63.918,5.26,1.457,7.877.428,2.057.9,4.108,1.422,6.137h0s9.2,41.89,15.291,50.789,18.66,21.332-2.375,28.926a74.229,74.229,0,0,1-11.356,2.962s-17.2-1.912-26.054-1.843a150.522,150.522,0,0,0-24.342,2.264c-5.357.9-10.825,2.2-15.616,4.7-4.57,2.389-7.87,5.9-12.509,8.374a2.417,2.417,0,0,1-1.422.407C257.11,226.576,256.986,217.214,257.207,210.27Z" transform="translate(-257.133 -91.951)"/>
        </g>
        <g id="Group_29" data-name="Group 29" transform="translate(36.846)">
          <path id="Path_109" data-name="Path 109" class="cls-16" d="M321.259,81.986c-1.546.759-5.191,1.036-8.988-.456A1.974,1.974,0,0,1,311,79.666a51.411,51.411,0,0,1,.552-6.9c-2.851-1-6.144-2.506-6.641-5.488a8.552,8.552,0,0,1,.166-2.837q1-5.82,2.009-11.632a10.45,10.45,0,0,1,1.208-3.873c1.277-2.016,3.762-2.9,6.116-3.307,6.006-1.042,12.551.255,17.2,4.19a9.3,9.3,0,0,1,2.906,3.831c.842,2.354.214,4.95-.421,7.373q-.88,3.345-1.76,6.7c-.677,2.568-1.65,5.488-4.121,6.448-1.312.511-2.865.359-4.052,1.118C322.073,76.629,322.356,79.749,321.259,81.986Z" transform="translate(-292.273 -24.481)"/>
          <path id="Path_110" data-name="Path 110" class="cls-10" d="M350.281,33.976a25,25,0,0,1,1.933-2.782c1.54-1.9,3.438-3.528,4.674-5.633s1.678-4.964.186-6.9a7.629,7.629,0,0,0-4.032-2.326,29.252,29.252,0,0,0-15.409-.283c-4.8,1.222-9.092,3.245-13.924,1.443-4.536-1.7-7.815-1-12.557.69-5.136,1.829-12.026,2.264-16.672,4.846a13.7,13.7,0,0,0-4.694,4.632,20.648,20.648,0,0,0-.055,21.843,29.3,29.3,0,0,0,3.217,4.052c2.423,2.623,5.316,5.868,8.65,6.841.076-2.982-2.637-12.378-.345-14.822,3.631-3.873,11.846-2.527,16.348-1.567,4.915,1.042,9.292,4.522,14.166,5.267,3.507.538,7.98-1.187,10.963-3C346.415,44.042,348.127,37.518,350.281,33.976Z" transform="translate(-286.634 -15.152)"/>
        </g>
        <path id="Path_111" data-name="Path 111" class="cls-15" d="M273.652,100.66l-19.1,16.727-21.3,44.762,26.9,32.012,4.632-17.9Z" transform="translate(-233.26 -41.629)"/>
      </g>
      <g id="Group_35" data-name="Group 35" transform="translate(23.774 37.111)">
        <g id="Group_31" data-name="Group 31" transform="translate(10.689 162.729)">
          <path id="Path_112" data-name="Path 112" class="cls-17" d="M92.839,280.748,49.92,267.68l12.854,73.15-1.4,63.823-.11.428.1.007v.138l8.333.318.007-.007.311.021L85.3,347.892l6.372-60.847h0Z" transform="translate(-49.92 -267.68)"/>
          <path id="Path_113" data-name="Path 113" class="cls-7" d="M73.517,471.61l-8.616.276-1.781,7.38.221.055-.055.007,14.7,7.615,6.807.366.414-7.773-1.9-1.236Z" transform="translate(-54.007 -330.827)"/>
        </g>
        <g id="Group_32" data-name="Group 32" transform="translate(42.362 168.383)">
          <path id="Path_114" data-name="Path 114" class="cls-17" d="M140.127,282.794l-5.44,126.81-8.3.849-12.233-67.606L95.8,275.87Z" transform="translate(-95.8 -275.87)"/>
          <path id="Path_115" data-name="Path 115" class="cls-7" d="M148.2,473.83l11.377,5.626-.739,5.254-19.861-1.843.732-7.559Z" transform="translate(-109.171 -337.168)"/>
        </g>
        <g id="Group_33" data-name="Group 33" transform="translate(0 31.011)">
          <path id="Path_116" data-name="Path 116" class="cls-4" d="M34.529,244.421c-1.491-21.366,15.7-89.939,15.7-89.939h0a120.354,120.354,0,0,0,3.935-19.537c.525-4.66,12.944-57.8,12.019-57.838,9.6.428,28.008-2.354,35.291,4.246.207.186.407.387.594.587,5.709,6.151,8.947,18.847,11.784,26.634a210.123,210.123,0,0,1,8.767,31.432c1.843,9.34,3.044,18.791,3.976,28.263.8,8.139.58,16.265,1.084,24.287.559,8.878,3.493,18.432,5.73,27.02a150.636,150.636,0,0,0,8.781,25.294c-9.389,4.48-19.951,5.916-30.355,6.248s-20.814-.38-31.211.076c-8.788.387-17.666,1.595-26.33.076-6.89-1.215-13.3-4.087-19.765-6.848Z" transform="translate(-34.437 -76.881)"/>
        </g>
        <g id="Group_34" data-name="Group 34" transform="translate(44.289 0)">
          <path id="Path_117" data-name="Path 117" class="cls-10" d="M127.01,39.9c4.432,2.037,9.147,7.476,9.009,12.668-.062,2.5-1.388,4.48-1.353,7.159.055,5.281-7.794,11.032-2.755,15.982,2.589,2.547,6.538,2.948,10.162,3.21a2.573,2.573,0,0,0,1.3-.124,1.872,1.872,0,0,0,.925-1.823,7.792,7.792,0,0,0-.573-2.092c-2.5-7.159.732-15.685.932-23.058s-1.76-15.243-7.918-19.861c-4,1.346-6.966,3.134-8.843,6.917Z" transform="translate(-107.392 -31.96)"/>
          <path id="Path_118" data-name="Path 118" class="cls-3" d="M116.381,72.282c4.964-.766,9.092-4.563,11.287-9.078s2.692-9.679,2.575-14.7c-.393-16.706-21.09-17.252-29.064-5.088C94.228,54.009,101.953,74.512,116.381,72.282Z" transform="translate(-98.592 -32.911)"/>
        </g>
      </g>
      <g id="Group_38" data-name="Group 38" transform="translate(484.861 139.206)">
        <rect id="Rectangle_55" data-name="Rectangle 55" class="cls-18" width="164.476" height="106.134" transform="translate(4.342 35.933)"/>
        <g id="Group_36" data-name="Group 36">
          <path id="Path_119" data-name="Path 119" class="cls-18" d="M849.247,179.85H728.594L702.34,210.778H875.5Z" transform="translate(-702.34 -179.85)"/>
          <rect id="Rectangle_56" data-name="Rectangle 56" class="cls-19" width="173.161" height="11.149" transform="translate(0 30.928)"/>
          <path id="Path_120" data-name="Path 120" class="cls-20" d="M782.293,195l-7.783,5.005H900.524L892.74,195Z" transform="translate(-751.208 -184.541)"/>
        </g>
        <path id="Path_121" data-name="Path 121" class="cls-21" d="M708.63,240.8l164.476,15.333V240.8Z" transform="translate(-704.288 -198.723)"/>
      </g>
      <path id="Path_129" data-name="Path 129" class="cls-9" d="M742.75,210.119l.324,5.557,6.9,8.1,4.156-4.17-3.314-7.366,1.664-2.7-2.748-3Z" transform="translate(-229.992 -48.911)"/>
      <path id="Path_130" data-name="Path 130" class="cls-8" d="M770.9,89.48l-11.17,3.4-40.813,42.76-2.43,14.09L736,181.945l5.267-11.8-8.257-23.81,13.117-9.23L763.62,97.743Z" transform="translate(-221.861 -12.66)"/>
      <g id="Group_43" data-name="Group 43" transform="translate(190.5 62.517)">
        <g id="Group_42" data-name="Group 42" transform="translate(31.586)">
          <g id="Group_41" data-name="Group 41">
            <g id="Group_39" data-name="Group 39">
              <path id="Path_131" data-name="Path 131" class="cls-22" d="M480.26,81.035c-17.956-3.8-42.035,3.162-49.484,18.211-3.452-16.423-30.065-29.63-48.4-30.424-48.394-2.085-71.479,50.106-55.8,89.152,8.436,21.014,21.967,40.165,37.148,57.741,12.709,14.718,46.247,46.771,46.371,46.7.1.11,40.579-22.6,56.56-33.689,19.088-13.248,36.968-28.429,50.382-46.681C541.963,148.123,527.646,91.045,480.26,81.035Z" transform="translate(-321.701 -68.762)"/>
            </g>
            <g id="Group_40" data-name="Group 40" class="cls-23" transform="translate(59.259 93.651)">
              <path id="Path_132" data-name="Path 132" class="cls-24" d="M532.79,226.539a264.506,264.506,0,0,1-45.853,35.049c-15.954,9.582-34.221,17.383-53.35,18.336a65.036,65.036,0,0,1-26.047-3.873c13.759,13.9,28.808,28.242,28.891,28.194.1.11,40.579-22.6,56.56-33.689,19.088-13.248,36.968-28.429,50.382-46.681a61.389,61.389,0,0,0,9.485-19.454A194.89,194.89,0,0,1,532.79,226.539Z" transform="translate(-407.54 -204.42)"/>
            </g>
          </g>
        </g>
        <path id="Path_133" data-name="Path 133" class="cls-18" d="M577.81,255.444a10.012,10.012,0,0,0-19.882-2.382v.014l-11.8,41.842a37.149,37.149,0,0,1-18.577,22.844l-33.227,17.307,24.411-28.65a9.064,9.064,0,0,0,1.1-1.3l.014-.014h0a9.192,9.192,0,0,0-12.682-12.882l-.007-.007L474.085,315.85a62.606,62.606,0,0,0-25.764,43.4l-2.361,19.426a24,24,0,0,0,38.383,21.953l67.951-43.6a36.106,36.106,0,0,0,16.347-26.033l9.168-75.545Z" transform="translate(-328.537 -123.106)"/>
        <path id="Path_134" data-name="Path 134" class="cls-18" d="M285.4,214.268a10.01,10.01,0,0,1,19.868,2.458v.014l1.429,43.451a37.115,37.115,0,0,0,12.564,26.634l28.111,24.77-16.831-33.668a9.454,9.454,0,0,1-.759-1.519l-.007-.014h0a9.191,9.191,0,0,1,15.4-9.465l.007-.007,26.447,30.866a62.611,62.611,0,0,1,14.608,48.3l-2.361,19.426a23.994,23.994,0,0,1-42.526,12.109l-55.511-58.618a36.117,36.117,0,0,1-9.63-29.195l9.189-75.545Z" transform="translate(-275.947 -111.104)"/>
      </g>
      <g id="Group_44" data-name="Group 44" transform="translate(426.485 86.091)">
        <g id="XMLID_2_" transform="translate(0 109.331)">
          <path id="Path_135" data-name="Path 135" class="cls-11" d="M627.252,261.28l4.908,2.775-2.085,10.383-6.7,2.63-5.6-3.41,2.616-4.888-1.146-.9-.048-2.154Z" transform="translate(-617.78 -261.28)"/>
        </g>
        <g id="XMLID_1_" transform="translate(7.766)">
          <path id="Path_136" data-name="Path 136" class="cls-13" d="M658.68,102.91l11.446,19.323-.538,47.558L639.717,217.3l-10.687-5.516,23.534-42-4.315-32.695Z" transform="translate(-629.03 -102.91)"/>
        </g>
      </g>
      <path id="Path_137" data-name="Path 137" class="cls-25" d="M834.775,74.763,863.57,64.408,881.636,21.62l9.955.649L879.8,69.3,869.334,81.2,833.85,99Z" transform="translate(-258.202 8.352)"/>
      <path id="Path_138" data-name="Path 138" class="cls-9" d="M910.527,15.436l2.561-4.943L911.307,0,905.6,1.457l-.918,8.022-2.81,1.464.828,3.983Z" transform="translate(-279.264 15.047)"/>
      <g id="Group_54" data-name="Group 54" transform="translate(546.453)">
        <g id="Group_46" data-name="Group 46">
          <g id="Group_45" data-name="Group 45">
            <circle id="Ellipse_11" data-name="Ellipse 11" class="cls-15" cx="57.81" cy="57.81" r="57.81" transform="translate(0 81.755) rotate(-45)"/>
          </g>
        </g>
        <g id="Group_48" data-name="Group 48" transform="translate(12.37 12.37)">
          <g id="Group_47" data-name="Group 47" transform="translate(0 0)">
            <circle id="Ellipse_12" data-name="Ellipse 12" class="cls-15" cx="49.063" cy="49.063" r="49.063" transform="translate(0 69.385) rotate(-45)"/>
          </g>
        </g>
        <g id="Group_50" data-name="Group 50" transform="translate(40.469 39.831)">
          <g id="Group_49" data-name="Group 49" transform="translate(0 0)">
            <path id="Path_139" data-name="Path 139" class="cls-26" d="M917.068,35.9a49.067,49.067,0,0,1-66.888,68.358A49.063,49.063,0,1,0,917.068,35.9Z" transform="translate(-850.18 -35.9)"/>
          </g>
        </g>
        <g id="Group_52" data-name="Group 52" transform="translate(38.074 38.118)">
          <g id="Group_51" data-name="Group 51" transform="translate(0 0)">
            <path id="Path_140" data-name="Path 140" class="cls-27" d="M849.941,81.613a43.3,43.3,0,0,1,77.588-26.53,43.308,43.308,0,1,0-71.8,48.1A43.109,43.109,0,0,1,849.941,81.613Z" transform="translate(-846.71 -33.42)"/>
          </g>
        </g>
      </g>
      <g id="Group_72" data-name="Group 72" transform="translate(21.712 102.287)">
        <g id="Group_55" data-name="Group 55">
          <path id="Path_142" data-name="Path 142" class="cls-18" d="M189.464,214.976A26.612,26.612,0,0,0,174.85,200.9c.035-.939.055-1.878.055-2.8a71.672,71.672,0,1,0-43.8,66.087c.387-.166.78-.331,1.167-.511l3.245,2.568c3.148,2.492,6.268,4.874,7.842,6.068,1.1.835,2.036,1.533,2.7,2.023.456.338.856.635,1.229.877a4.761,4.761,0,0,0,2.734.87h.021a6.2,6.2,0,0,0,.835-.048h.387l.29-.173a18.09,18.09,0,0,0,3.5-2.292c.428-.311,1.056-.78,1.836-1.36l.739-.552c.787-.587,1.684-1.256,2.651-2,3.686-2.789,8.671-6.641,11.515-9.175,7.573-6.745,13.082-13.275,16.845-19.958A28.416,28.416,0,0,0,189.464,214.976Z" transform="translate(-31.45 -126.37)"/>
        </g>
        <g id="Group_71" data-name="Group 71" transform="translate(5.274 4.743)">
          <g id="Group_66" data-name="Group 66">
            <g id="Group_65" data-name="Group 65">
              <g id="Group_64" data-name="Group 64">
                <g id="Group_63" data-name="Group 63">
                  <g id="Group_58" data-name="Group 58">
                    <g id="Group_56" data-name="Group 56">
                      <path id="Path_143" data-name="Path 143" class="cls-22" d="M106.075,267.209a66.8,66.8,0,1,1,26.075-5.267A66.56,66.56,0,0,1,106.075,267.209Zm0-127.232a60.245,60.245,0,1,0,42.6,17.645A59.859,59.859,0,0,0,106.075,139.978Z" transform="translate(-39.09 -133.24)"/>
                    </g>
                    <g id="Group_57" data-name="Group 57" transform="translate(63.609 3.369)">
                      <rect id="Rectangle_57" data-name="Rectangle 57" class="cls-22" width="6.745" height="127.232" transform="translate(0)"/>
                    </g>
                  </g>
                  <g id="Group_59" data-name="Group 59" transform="translate(7.076 42.816)">
                    <rect id="Rectangle_58" data-name="Rectangle 58" class="cls-22" width="120.88" height="6.745"/>
                  </g>
                  <g id="Group_60" data-name="Group 60" transform="translate(5.088 81.42)">
                    <rect id="Rectangle_59" data-name="Rectangle 59" class="cls-22" width="122.986" height="6.745"/>
                  </g>
                  <g id="Group_61" data-name="Group 61" transform="translate(27.676 0.552)">
                    <path id="Path_144" data-name="Path 144" class="cls-22" d="M115.506,266.76a92.574,92.574,0,0,1-18.177-17.984,90.1,90.1,0,0,1-12.454-21.408,76.988,76.988,0,0,1-5.7-28.953A72.232,72.232,0,0,1,84.9,170.049a81.243,81.243,0,0,1,30.845-36.009l3.369,5.84a73.014,73.014,0,0,0-16.72,14.677A70.775,70.775,0,0,0,91.04,172.824a65.5,65.5,0,0,0-5.122,25.591,70.243,70.243,0,0,0,5.205,26.427,83.069,83.069,0,0,0,11.529,19.8,86.656,86.656,0,0,0,16.7,16.582Z" transform="translate(-79.18 -134.04)"/>
                  </g>
                  <g id="Group_62" data-name="Group 62" transform="translate(66.998 0.545)">
                    <path id="Path_145" data-name="Path 145" class="cls-22" d="M139.992,266.757l-3.852-5.537a87.707,87.707,0,0,0,16.838-16.762,83.265,83.265,0,0,0,11.439-19.751,70.235,70.235,0,0,0,5.157-26.3,65.467,65.467,0,0,0-5.185-25.729,70.919,70.919,0,0,0-11.446-18.315,72.232,72.232,0,0,0-16.562-14.49l3.369-5.84A81.242,81.242,0,0,1,170.6,170.039a72.11,72.11,0,0,1,5.716,28.366,76.961,76.961,0,0,1-5.7,28.953,89.964,89.964,0,0,1-12.454,21.408A92.365,92.365,0,0,1,139.992,266.757Z" transform="translate(-136.14 -134.03)"/>
                  </g>
                </g>
              </g>
            </g>
          </g>
          <g id="Group_70" data-name="Group 70" transform="translate(76.649 72.666)">
            <g id="Group_69" data-name="Group 69" transform="translate(0)">
              <g id="Group_67" data-name="Group 67">
                <path id="Path_146" data-name="Path 146" class="cls-22" d="M204.374,238.652c-6.538-.573-14.787,2.934-16.776,8.6-1.933-5.682-11.95-9.216-18.494-8.705-17.266,1.346-23.21,20.869-15.954,34.055,3.9,7.1,9.534,13.31,15.678,18.895,5.15,4.674,18.432,14.608,18.474,14.573.041.035,13.427-9.768,18.619-14.4,6.206-5.53,11.895-11.688,15.871-18.743C229.172,259.8,221.626,240.157,204.374,238.652Z" transform="translate(-150.119 -238.499)"/>
              </g>
              <g id="Group_68" data-name="Group 68" class="cls-23" transform="translate(25.62 27.055)">
                <path id="Path_147" data-name="Path 147" class="cls-22" d="M229.542,286.4a94.73,94.73,0,0,1-14.76,14.421c-5.247,4.094-11.4,7.649-18.142,8.816a23.371,23.371,0,0,1-9.409-.249c5.481,4.342,11.446,8.781,11.474,8.761.041.035,13.427-9.768,18.619-14.4,6.206-5.53,11.895-11.688,15.871-18.743a21.966,21.966,0,0,0,2.527-7.318A70.083,70.083,0,0,1,229.542,286.4Z" transform="translate(-187.23 -277.69)"/>
              </g>
            </g>
          </g>
        </g>
      </g>
      <g id="Group_74" data-name="Group 74" transform="translate(0 74.203)">
        <g id="Group_73" data-name="Group 73" transform="translate(24.68 108.111)">
          <path id="Path_148" data-name="Path 148" class="cls-3" d="M37.476,251.252c.621,2.471,4.943,7.663,7.656,8.056,6.275.918,1.353-5.847.179-8.574a16.25,16.25,0,0,0,3.134-.532c.925-.3-5.04-7.242-6.234-7.628-2.865-.925-3.99.621-6.462,1.961C36.378,246.758,36.91,249.015,37.476,251.252Z" transform="translate(-35.75 -242.293)"/>
        </g>
        <path id="Path_149" data-name="Path 149" class="cls-4" d="M54.62,85.69,0,154.911,23.8,199l11.018-2.975L23.03,158.881,38.066,139.51l30-23.313Z" transform="translate(0 -85.69)"/>
      </g>
      <path id="Path_150" data-name="Path 150" class="cls-10" d="M74.7,70.453c2.547-.8,5.06-1.678,6.986-3.907,3.113-3.6,3.88-10.217,5.274-14.622,1.464-4.646,3.21-9.672,7.318-12.281,2.685-1.705,5.44-1.657,8.443-1.208,2.057.311,2.009,1.1,3.928.29,1.47-.621,3.031-2.955,3.583-4.377a8.662,8.662,0,0,0-.946-7.407,12.134,12.134,0,0,0-8.581-6.11C87.378,18.3,76.007,24.559,70.05,37c-2.865,5.978-2.692,13.2-5.633,18.929-1.816,3.535-4.625,5.619-6.261,9.437-4.239,9.9-12.143,22.14-13.489,32.881a1.533,1.533,0,0,0,.173,1.153c.511.635,1.526.138,2.154-.387q5.488-4.577,10.977-9.147A20.033,20.033,0,0,0,61.91,85.9c2.616-3.852,2.527-9.416,6.1-12.4C69.967,71.875,72.349,71.2,74.7,70.453Z" transform="translate(-13.821 8.769)"/>
      <path id="Path_151" data-name="Path 151" class="cls-16" d="M283.8,234.3l9.782,5.613,2.582-4.08-5.847-5.323,2.112-1.367-8.954-3.776-3.258,3.873Z" transform="translate(-86.77 -54.739)"/>
    </g>
  </g>
</svg>
