<svg xmlns="http://www.w3.org/2000/svg" viewBox="0 0 952.982 1230.778">
  <defs>
    <style>
      .cls-1 {
        fill: #b12a2a;
      }

      .cls-2 {
        opacity: 0.12;
      }

      .cls-3 {
        fill: #000100;
      }

      .cls-4 {
        fill: #e4b923;
      }

      .cls-5 {
        fill: none;
        stroke: #e4b923;
        stroke-miterlimit: 10;
      }

      .cls-6 {
        fill: #e6ba25;
      }
    </style>
  </defs>
  <g id="Group_91" data-name="Group 91" transform="translate(-3169.444 -562.22)">
    <g id="Group_42" data-name="Group 42" transform="translate(3208.358 562.22)">
      <g id="Group_41" data-name="Group 41">
        <g id="Group_39" data-name="Group 39">
          <path id="Path_131" data-name="Path 131" class="cls-1" d="M1020.462,122.848c-79.131-16.733-185.248,13.934-218.075,80.257-15.212-72.377-132.494-130.577-213.3-134.076-213.268-9.188-315,220.813-245.912,392.888,37.177,92.609,96.807,177,163.708,254.461C562.895,781.24,710.692,922.5,711.239,922.161c.456.487,178.829-99.576,249.259-148.466,84.121-58.382,162.917-125.283,222.03-205.723C1292.386,418.5,1229.288,166.962,1020.462,122.848Z" transform="translate(-321.701 -68.762)"/>
        </g>
        <g id="Group_40" data-name="Group 40" class="cls-2" transform="translate(261.152 412.717)">
          <path id="Path_132" data-name="Path 132" class="cls-3" d="M959.511,301.9c-60.786,57.9-129.36,110.8-202.072,154.46-70.308,42.228-150.809,76.606-235.112,80.8-40.494,2.038-79.162-3.834-114.787-17.068C468.174,581.366,534.5,644.555,534.862,644.342c.456.487,178.829-99.576,249.259-148.466,84.121-58.383,162.917-125.283,222.029-205.723a270.533,270.533,0,0,0,41.8-85.733C1021.271,239.1,991.365,271.534,959.511,301.9Z" transform="translate(-407.54 -204.42)"/>
        </g>
      </g>
    </g>
    <g id="Group_90" data-name="Group 90" transform="matrix(-0.809, 0.588, -0.588, -0.809, 3732.06, 1589.618)">
      <path id="Path_66" data-name="Path 66" class="cls-4" d="M267.106,147.636V119.4a11.877,11.877,0,0,0-11.859-11.859h-8.76a13.057,13.057,0,0,1-12.4-8.827,111.512,111.512,0,0,0-4.851-11.657,13.148,13.148,0,0,1,2.56-15.026l6.2-6.2a11.835,11.835,0,0,0,0-16.778L218.051,29.11a11.754,11.754,0,0,0-16.711,0l-6.2,6.2a13.148,13.148,0,0,1-15.026,2.561,112.674,112.674,0,0,0-11.725-4.852,13.147,13.147,0,0,1-8.827-12.4v-8.76A11.877,11.877,0,0,0,147.7,0H119.47a11.877,11.877,0,0,0-11.859,11.859v8.76a13.057,13.057,0,0,1-8.827,12.4,119.137,119.137,0,0,0-11.725,4.852,13.148,13.148,0,0,1-15.026-2.561l-6.2-6.2a11.835,11.835,0,0,0-16.779,0L29.109,49.055a11.835,11.835,0,0,0,0,16.778l6.2,6.2a13.148,13.148,0,0,1,2.561,15.026,117.924,117.924,0,0,0-4.852,11.657,13.147,13.147,0,0,1-12.4,8.827h-8.76A11.877,11.877,0,0,0,0,119.4v28.233A11.877,11.877,0,0,0,11.859,159.5h8.76a13.057,13.057,0,0,1,12.4,8.827,119.1,119.1,0,0,0,4.852,11.725,13.148,13.148,0,0,1-2.561,15.026l-6.2,6.2a11.835,11.835,0,0,0,0,16.778L49.055,238a11.835,11.835,0,0,0,16.779,0l6.2-6.2a13.148,13.148,0,0,1,15.026-2.561,112.7,112.7,0,0,0,11.725,4.852,13.147,13.147,0,0,1,8.827,12.4v8.76a11.877,11.877,0,0,0,11.859,11.859H147.7a11.877,11.877,0,0,0,11.859-11.859v-8.76a13.057,13.057,0,0,1,8.827-12.4,112.65,112.65,0,0,0,11.725-4.852,13.148,13.148,0,0,1,15.026,2.561l6.2,6.2a11.754,11.754,0,0,0,16.711,0L238,218.051a11.835,11.835,0,0,0,0-16.778l-6.2-6.2a13.148,13.148,0,0,1-2.561-15.026,112.655,112.655,0,0,0,4.851-11.725,13.147,13.147,0,0,1,12.4-8.827h8.76A11.877,11.877,0,0,0,267.106,147.636Zm-128.3,50a64.26,64.26,0,1,1,58.825-58.825C195.208,169.94,169.94,195.141,138.809,197.634Z" transform="translate(39.419 39.486)"/>
      <path id="Path_67" data-name="Path 67" class="cls-1" d="M346.011,191.3V154.711a15.357,15.357,0,0,0-15.363-15.363H319.26a17,17,0,0,1-16.037-11.388,149.416,149.416,0,0,0-6.266-15.161,17.043,17.043,0,0,1,3.3-19.474l8.018-8.019a15.333,15.333,0,0,0,0-21.7L282.4,37.734a15.332,15.332,0,0,0-21.7,0l-8.019,8.019a17.043,17.043,0,0,1-19.474,3.3,135.354,135.354,0,0,0-15.161-6.267,17,17,0,0,1-11.388-16.037V15.363A15.357,15.357,0,0,0,191.3,0H154.711a15.356,15.356,0,0,0-15.363,15.363V26.751A17,17,0,0,1,127.96,42.788,149.336,149.336,0,0,0,112.8,49.055a17.043,17.043,0,0,1-19.474-3.3l-8.019-8.019a15.332,15.332,0,0,0-21.7,0L37.734,63.609a15.332,15.332,0,0,0,0,21.7l8.019,8.019a17.043,17.043,0,0,1,3.3,19.474,135.339,135.339,0,0,0-6.267,15.161,16.906,16.906,0,0,1-16.037,11.388H15.363A15.356,15.356,0,0,0,0,154.711V191.3a15.356,15.356,0,0,0,15.363,15.363H26.751a17,17,0,0,1,16.037,11.388,149.391,149.391,0,0,0,6.267,15.161,17.043,17.043,0,0,1-3.3,19.474L37.734,260.7a15.332,15.332,0,0,0,0,21.7l25.875,25.875a15.332,15.332,0,0,0,21.7,0l8.019-8.019a17.043,17.043,0,0,1,19.474-3.3,149.331,149.331,0,0,0,15.161,6.267,16.906,16.906,0,0,1,11.388,16.037v11.388a15.356,15.356,0,0,0,15.363,15.363H191.3a15.357,15.357,0,0,0,15.363-15.363V319.26a17,17,0,0,1,11.388-16.037,149.384,149.384,0,0,0,15.161-6.267,17.043,17.043,0,0,1,19.474,3.3l8.019,8.019a15.332,15.332,0,0,0,21.7,0L308.277,282.4a15.333,15.333,0,0,0,0-21.7l-8.019-8.019a17.043,17.043,0,0,1-3.3-19.474,135.389,135.389,0,0,0,6.266-15.161,17,17,0,0,1,16.037-11.388h11.388A15.356,15.356,0,0,0,346.011,191.3ZM179.778,256.055A83.249,83.249,0,0,1,90.024,166.3c3.167-40.362,35.915-73.11,76.278-76.277a83.249,83.249,0,0,1,89.754,89.754C252.888,220.14,220.14,252.888,179.778,256.055Z" transform="translate(0 0)"/>
      <ellipse id="Ellipse_10" data-name="Ellipse 10" class="cls-5" cx="111.047" cy="111.047" rx="111.047" ry="111.047" transform="matrix(0.664, -0.748, 0.748, 0.664, 16.283, 182.428)"/>
      <path id="Path_68" data-name="Path 68" class="cls-5" d="M0,111.047A111.061,111.061,0,0,1,111.047,0" transform="translate(61.925 61.992)"/>
    </g>
    <path id="Path_133" data-name="Path 133" class="cls-6" d="M390.574,33.08a29.618,29.618,0,0,0-58.816-7.046v.041l-34.922,123.78a109.9,109.9,0,0,1-54.957,67.578l-98.293,51.2L215.8,183.879a26.808,26.808,0,0,0,3.268-3.839l.041-.041h0a27.192,27.192,0,0,0-37.516-38.108l-.021-.02L83.728,211.776A185.205,185.205,0,0,0,7.512,340.151L.527,397.619a70.984,70.984,0,0,0,113.548,64.943L315.093,333.575a106.812,106.812,0,0,0,48.36-77.013L390.574,33.08Z" transform="translate(3643.025 1179.117) rotate(8)"/>
    <path id="Path_134" data-name="Path 134" class="cls-6" d="M27.964,25.929A29.612,29.612,0,0,1,86.739,33.2v.041l4.227,128.538a109.8,109.8,0,0,0,37.169,78.789l83.16,73.275-49.79-99.6a27.969,27.969,0,0,1-2.246-4.493l-.02-.041h0a27.191,27.191,0,0,1,45.562-28l.02-.02L283.059,273a185.219,185.219,0,0,1,43.214,142.9l-6.984,57.468a70.98,70.98,0,0,1-125.8,35.821L29.271,335.777A106.842,106.842,0,0,1,.781,249.411L27.964,25.929Z" transform="translate(3169.444 1131.457) rotate(-9)"/>
  </g>
</svg>
