<svg id="Group_43" data-name="Group 43" xmlns="http://www.w3.org/2000/svg" viewBox="0 0 1098.84 1244.789">
  <defs>
    <style>
      .cls-1 {
        fill: #b12a2a;
      }

      .cls-2 {
        opacity: 0.12;
      }

      .cls-3 {
        fill: #000100;
      }

      .cls-4 {
        fill: #e6ba25;
      }
    </style>
  </defs>
  <g id="Group_42" data-name="Group 42" transform="translate(139.198)">
    <g id="Group_41" data-name="Group 41">
      <g id="Group_39" data-name="Group 39">
        <path id="Path_131" data-name="Path 131" class="cls-1" d="M1020.462,122.848c-79.131-16.733-185.248,13.934-218.075,80.257-15.212-72.377-132.494-130.577-213.3-134.076-213.268-9.188-315,220.813-245.912,392.888,37.177,92.609,96.807,177,163.708,254.461C562.895,781.24,710.692,922.5,711.239,922.161c.456.487,178.829-99.576,249.259-148.466,84.121-58.382,162.917-125.283,222.03-205.723C1292.386,418.5,1229.288,166.962,1020.462,122.848Z" transform="translate(-321.701 -68.762)"/>
      </g>
      <g id="Group_40" data-name="Group 40" class="cls-2" transform="translate(261.152 412.717)">
        <path id="Path_132" data-name="Path 132" class="cls-3" d="M959.511,301.9c-60.786,57.9-129.36,110.8-202.072,154.46-70.308,42.228-150.809,76.606-235.112,80.8-40.494,2.038-79.162-3.834-114.787-17.068C468.174,581.366,534.5,644.555,534.862,644.342c.456.487,178.829-99.576,249.259-148.466,84.121-58.383,162.917-125.283,222.029-205.723a270.533,270.533,0,0,0,41.8-85.733C1021.271,239.1,991.365,271.534,959.511,301.9Z" transform="translate(-407.54 -204.42)"/>
      </g>
    </g>
  </g>
  <path id="Path_133" data-name="Path 133" class="cls-4" d="M1027.623,293.542A44.123,44.123,0,0,0,940,283.046v.061L887.98,467.5a163.712,163.712,0,0,1-81.87,100.671L659.683,644.445,767.26,518.188a39.946,39.946,0,0,0,4.868-5.719l.061-.061h0a40.508,40.508,0,0,0-55.887-56.77l-.031-.03L570.512,559.747a275.9,275.9,0,0,0-113.54,191.241l-10.4,85.612a105.746,105.746,0,0,0,169.154,96.746L915.179,741.192a159.119,159.119,0,0,0,72.042-114.727l40.4-332.923Z" transform="translate(70.912 289.667)"/>
  <path id="Path_134" data-name="Path 134" class="cls-4" d="M317.6,244.131a44.113,44.113,0,0,1,87.559,10.831v.061l6.3,191.485a163.564,163.564,0,0,0,55.37,117.373L590.716,673.04,516.544,524.665a41.671,41.671,0,0,1-3.347-6.693l-.03-.061h0a40.506,40.506,0,0,1,67.875-41.71l.03-.03L697.623,612.193A275.922,275.922,0,0,1,762,825.065l-10.4,85.611a105.74,105.74,0,0,1-187.408,53.363L319.552,705.714a159.164,159.164,0,0,1-42.441-128.661L317.6,244.131Z" transform="translate(-275.947 210.509)"/>
</svg>
