<svg xmlns="http://www.w3.org/2000/svg" xmlns:xlink="http://www.w3.org/1999/xlink" viewBox="0 0 982 949" >
  <defs>
    <style>
      .cls-1 {
        fill: #fff;
        stroke: #707070;
      }

      .cls-2 {
        clip-path: url(#clip-path);
      }

      .cls-3 {
        fill: #20b2be;
      }
    </style>
    <clipPath id="clip-path">
      <rect id="Rectangle_87" data-name="Rectangle 87" class="cls-1" width="982" height="949" transform="translate(1119)"/>
    </clipPath>
  </defs>
  <g id="Mask_Group_2" data-name="Mask Group 2" class="cls-2" transform="translate(-1119)">
    <path id="Subtraction_2" data-name="Subtraction 2" class="cls-3" d="M1058.6,1885.152h0l0,0c2.1-4.16,3.369-9.7,3.772-16.46a123.147,123.147,0,0,0-1.151-22.842,291.6,291.6,0,0,0-5.967-30.681,40.7,40.7,0,0,0,9.339,1.082,40.493,40.493,0,1,0,0-80.985c-.368,0-.726,0-1.065.013a40.513,40.513,0,0,0-33.937-49.393,40.511,40.511,0,0,0-33.7-50.925,46.447,46.447,0,0,0-1.151-15.159,51.472,51.472,0,0,0-10.861-20.705,79.106,79.106,0,0,0-18.553-15.825,107.94,107.94,0,0,0-21.441-10.31,96.283,96.283,0,0,0-13.132-3.634,58.81,58.81,0,0,0-11.257-1.243c-3.624,0-6.453.5-8.408,1.49a47.646,47.646,0,0,0-6.584-10.3,45.778,45.778,0,0,0-35.066-16.4,46.611,46.611,0,0,0-26.316,8.218,45.743,45.743,0,0,0-5.826-5.345,47.2,47.2,0,0,0-5.955-9.034,46.039,46.039,0,0,0-21.74-14.427,45.263,45.263,0,0,0-13.494-1.856c-.234,0-.473,0-.708,0a47.28,47.28,0,0,0-10.092-21.074,45.679,45.679,0,0,0-21.573-14.309,44.3,44.3,0,0,0-13.067-1.955,49.248,49.248,0,0,0-10.16,1.089,40.291,40.291,0,0,0-2.951-3.986,49.943,49.943,0,0,0-7.222-6.948l-2.076-2.474a48.433,48.433,0,0,0,.3-9.365,46.74,46.74,0,0,0-1.561-9.281,45.077,45.077,0,0,0-8.969-17.1l-.026-.031a45.769,45.769,0,0,0-11.213-9.441,46.091,46.091,0,0,0-2.834-18.954c.7-17.269,5.244-34.124,13.9-51.529a202.36,202.36,0,0,1,14-23.668c4.843-7.128,10.467-14.648,17.194-22.989,15.194-18.836,30.4-36.488,45.188-52.465,14.319-15.467,28.187-29.3,41.219-41.117a1009.672,1009.672,0,0,1-104.375,72.14,360.949,360.949,0,0,1-31.669,17.439,151.236,151.236,0,0,1-14.207,5.906,105.856,105.856,0,0,1-13.834,3.906,91.408,91.408,0,0,1-18.84,1.936c-3.207,0-6.52-.166-9.845-.492-10.076-.989-21.068-3.5-33.6-7.664a44.662,44.662,0,0,0-13.728-10.473,47.412,47.412,0,0,0-16.1-4.6l-13.365-15.957a44.826,44.826,0,0,0-7.472-45.626,47.267,47.267,0,0,0-18.934-13.568,44.791,44.791,0,0,0-9.784-38.3,47.129,47.129,0,0,0-7.8-7.385,45.7,45.7,0,0,0-4.239-6.67,45.866,45.866,0,0,0,2.663-61.915,47.461,47.461,0,0,0-4.665-4.818,40.914,40.914,0,0,0,.548-6.678,40.5,40.5,0,0,0-36.514-40.3,40.481,40.481,0,0,0-37.53-55.725H441.9a41.088,41.088,0,0,0,.262-4.629,40.459,40.459,0,0,0-40.493-40.493c-.2,0-.4,0-.593,0a40.948,40.948,0,0,0,.593-6.946,40.493,40.493,0,0,0-68.412-29.329c-28.248-26.359-58.731-54.5-90.6-83.644-54.915-50.215-109.87-99.661-154.742-139.229-45.7-40.3-75.8-65.8-84.758-71.809L747.535,4.843,1752.25,1283.532ZM956.391,1149.32v0l.012,13.54a85.82,85.82,0,0,1-30.657,65.831l-8.835,7.412a20.4,20.4,0,0,0-2.516,28.755l75.659-63.485a58.225,58.225,0,0,0,20.851-44.85l-.078-29.084a599.626,599.626,0,0,0,54.244-40.653,445.323,445.323,0,0,0,51.328-51.267,547.855,547.855,0,0,0,40.722-53.987,448.438,448.438,0,0,0,27.689-47.516c6.633-13.424,10.978-24.737,12.235-31.854.65-3.67.475-6.131-.518-7.315-1.065-1.27-3.265-2.027-6.538-2.25-.68-.046-1.414-.07-2.181-.07a67.379,67.379,0,0,0-10.328.959c-10.407,1.657-23.949,5.361-39.164,10.709l-.025.008-.015.005-.018.006-.051.019-.052.018c-12.58,4.425-25.785,9.783-39.247,15.925l.014.017a551.062,551.062,0,0,0-57.6,30.514,462.133,462.133,0,0,0-56.62,40.3,600.019,600.019,0,0,0-49.064,45.949l-29.495-5.283a58.41,58.41,0,0,0-10.311-.92c-.825,0-1.657.018-2.475.053a58.359,58.359,0,0,0-35,13.613L782.7,1107.91l.005,0a20.344,20.344,0,0,0,13.851,7.208c.6.052,1.205.079,1.8.079a20.342,20.342,0,0,0,13.094-4.776l8.834-7.413a85.844,85.844,0,0,1,51.38-20c1.253-.055,2.522-.083,3.77-.083a86.017,86.017,0,0,1,15.006,1.322l14.3,2.534-39.166,25.547a8.722,8.722,0,0,0-2,12.816l-.325-.387-9.684,8.127a9.528,9.528,0,0,0-1.175,13.427l13.322,15.878-7.382,6.6a29.546,29.546,0,0,0-9.548,17.87l.728-.013.206,0h.1a29.59,29.59,0,0,0,17.8-6.275l8.053-6.312,8.984,10.706,4.448,5.3a9.466,9.466,0,0,0,6.47,3.369c.281.025.565.037.845.037a9.4,9.4,0,0,0,6.112-2.232l9.685-8.126-.311-.371a8.718,8.718,0,0,0,6.44,3.017h.152a8.7,8.7,0,0,0,6.364-2.775l31.526-33.672Z" transform="translate(865.243 -805.397)"/>
  </g>
</svg>
