<svg xmlns="http://www.w3.org/2000/svg" viewBox="0 0 594.754 473.057">
  <defs>
    <style>
      .cls-1 {
        fill: #b1292a;
      }

      .cls-2 {
        fill: #198b95;
      }

      .cls-3 {
        fill: #e4b923;
      }

      .cls-4 {
        fill: #e1e1ff;
      }

      .cls-5 {
        fill: #fff0f2;
      }

      .cls-6 {
        fill: #fff;
      }

      .cls-7 {
        fill: #c89149;
      }

      .cls-8 {
        fill: #2f1e07;
      }

      .cls-9 {
        fill: #6469d4;
      }

      .cls-10 {
        fill: #5159bf;
      }

      .cls-11, .cls-16 {
        fill: #20b2be;
      }

      .cls-12 {
        fill: #827ddc;
      }

      .cls-13 {
        fill: #18858f;
      }

      .cls-14 {
        fill: #4dc1cb;
      }

      .cls-15 {
        opacity: 0.39;
      }

      .cls-16, .cls-18 {
        opacity: 0.21;
      }

      .cls-17, .cls-23 {
        fill: #d2f0ff;
      }

      .cls-19 {
        fill: #afe6ff;
      }

      .cls-20 {
        fill: #5d3b0e;
      }

      .cls-21 {
        fill: #fab9af;
      }

      .cls-22 {
        fill: none;
        stroke: #e4b923;
        stroke-miterlimit: 10;
      }

      .cls-23 {
        opacity: 0.824;
      }
    </style>
  </defs>
  <g id="Group_89" data-name="Group 89" transform="translate(0 0.007)">
    <g id="Group_6" data-name="Group 6" transform="translate(0 197.96)">
      <path id="Path_5" data-name="Path 5" class="cls-1" d="M60.258,182.985c-1.453-10.705-3.718-27.65-14.188-40.813C29.723,121.638.235,117.92.235,117.92s-3.12,29.68,13.355,50.108c9.017,11.2,27.8,19.253,38.313,22.607A10.747,10.747,0,0,1,59.36,201c-1.026,71.369-12.051,105.493-12.051,105.493l10.534-1.218C66.9,228.071,62.266,197.857,60.258,182.985Z" transform="translate(0 -63.902)"/>
      <path id="Path_6" data-name="Path 6" class="cls-2" d="M50.945,167.164c2.821-8.825,7.286-22.8,18.1-32.33,16.881-14.872,42.351-13.59,42.351-13.59s-1.816,25.513-18.8,40.3c-9.3,8.1-26.368,12.073-35.748,13.355A9.158,9.158,0,0,0,49,182.528c-9.851,60.407-5.662,90.878-5.662,90.878L34.62,270.8C38.594,204.238,47.035,179.408,50.945,167.164Z" transform="translate(39.356 -60.154)"/>
      <path id="Path_7" data-name="Path 7" class="cls-3" d="M40.934,153.282c2.308-10.641,5.94-27.522,17.522-39.915C76.533,94.029,106.49,92.64,106.49,92.64s.769,30.086-17.415,49.317c-9.957,10.534-29.488,17.137-40.321,19.7a10.824,10.824,0,0,0-8.333,9.808A873.257,873.257,0,0,0,41.746,301.81l-10.513-2.051C28.263,221.382,37.729,168.069,40.934,153.282Z" transform="translate(34.858 -92.64)"/>
      <path id="Path_8" data-name="Path 8" class="cls-3" d="M42.571,187.6a35.779,35.779,0,0,0-6.2-14.979,24.952,24.952,0,0,0-5.385-5.534c-9.081-6.5-21.71-4.4-21.71-4.4s2.115,12.628,11.2,19.1c5.342,3.825,11.9,4.68,16.389,4.722a4.956,4.956,0,0,1,4.936,5.021c-.321,14.616-3.227,34.381-3.227,34.381l5.727-.962C46.033,211.079,44,195.737,42.571,187.6Z" transform="translate(10.55 -13.384)"/>
      <path id="Path_9" data-name="Path 9" class="cls-1" d="M61.845,153.36s-11.8,4.979-16,15.3c-2.329,5.705-1.111,14.487-.534,17.821a9.612,9.612,0,0,1,.085,2.821l-4.4,38.633h7.073a162.7,162.7,0,0,1-.513-33.142,9.572,9.572,0,0,1,3.932-6.966c3.59-2.586,8.975-7.116,11.09-12.329C66.781,165.155,61.845,153.36,61.845,153.36Z" transform="translate(46.597 -23.614)"/>
      <path id="Path_10" data-name="Path 10" class="cls-3" d="M37.936,252.119H65.95a5.214,5.214,0,0,0,2.586-.641,34.827,34.827,0,0,0,18.27-30.62V193.806a5.558,5.558,0,0,0-5.556-5.556H22.616a5.558,5.558,0,0,0-5.556,5.556v27.052a34.833,34.833,0,0,0,18.248,30.62A5.749,5.749,0,0,0,37.936,252.119Z" transform="translate(19.394 16.048)"/>
      <rect id="Rectangle_51" data-name="Rectangle 51" class="cls-4" width="69.723" height="16.56" transform="translate(36.475 220.089)"/>
      <rect id="Rectangle_52" data-name="Rectangle 52" class="cls-5" width="69.723" height="3.974" transform="translate(36.475 220.089)"/>
    </g>
    <rect id="Rectangle_53" data-name="Rectangle 53" class="cls-6" width="5.021" height="105.557" transform="translate(238.15 17.645) rotate(10.614)"/>
    <path id="Path_11" data-name="Path 11" class="cls-1" d="M180.222,56.377c-21.282-13.782-49.018,6.71-69.788-9.786a3.288,3.288,0,0,1-1.218-3.141l7.671-40.877A3.2,3.2,0,0,1,121.8.521c21.282,13.782,49.018-6.71,69.787,9.786a3.288,3.288,0,0,1,1.218,3.141q-3.846,20.449-7.671,40.877A3.187,3.187,0,0,1,180.222,56.377Z" transform="translate(124.1 0)"/>
    <path id="Path_12" data-name="Path 12" class="cls-7" d="M108.9,45.7a3.722,3.722,0,0,0-1.859,2.244,1.831,1.831,0,0,0-.085.94,2.436,2.436,0,0,1-.748,2.03,4.446,4.446,0,0,0-1.09,1.709,7.1,7.1,0,0,0-.3,3.633,6.377,6.377,0,0,1,.064,2.842,2.48,2.48,0,0,0,.235,1.731,2.539,2.539,0,0,0,4.786-1.3,1.941,1.941,0,0,1,.449-1.346.465.465,0,0,0,.107-.171,2.7,2.7,0,0,0,.385-1.88,1.838,1.838,0,0,1,.641-1.795,3.641,3.641,0,0,0,1.261-1.9,2.677,2.677,0,0,0,.085-1.389,1.911,1.911,0,0,1,.62-1.816,2.053,2.053,0,0,0,.748-1.88C113.878,45.466,110.267,44.931,108.9,45.7Z" transform="translate(119.011 51.574)"/>
    <path id="Path_13" data-name="Path 13" class="cls-7" d="M101.34,54.091c0-.021.021-.021.021-.043a13.24,13.24,0,0,1,1.966-2.885l2.714-3.056c1.987-1.859,3.034-3.462,5.321-3.718,3.761-.406,9.039-.6,9.21,1.389.171,1.944-4.786,3.184-7.607,3.547a2.275,2.275,0,0,0-1.923,1.752s1.389,11.154-4.466,11.581l-1.41,4.039L98.22,65.566l1.474-6.88A19.056,19.056,0,0,1,101.34,54.091Z" transform="translate(111.656 50.171)"/>
    <path id="Path_14" data-name="Path 14" class="cls-8" d="M105.354,74.053s-15.983-6.5-21.859,3.932c-5.9,10.428,2.842,38.1-18.419,41.86s-23.547,25.086-21.859,34.424c4.872,26.9,43.761,53.8,70.685,25.364s-6.517-47.65-9.017-62.01C102.405,103.263,119.158,84.182,105.354,74.053Z" transform="translate(48.623 81.919)"/>
    <path id="Path_15" data-name="Path 15" class="cls-8" d="M94.167,120.45c-.107-11.026,22.009-22.629-1.047-45.086a1.811,1.811,0,0,0-2.436-.15c-1.9,1.581-7.992,2.308-11.069,5.043-5.748,5.107-14.722,19.21-11.881,26.368,6.068,15.257-4.145,28.12-4.979,45.321-.662,17.671,28.12,35.214,42.052,30.3a14.624,14.624,0,0,0,9.3-9.658,12.832,12.832,0,0,0-.855-10.107c0-.021-.021-.021-.021-.043C107.842,152.352,94.551,157.224,94.167,120.45Z" transform="translate(71.328 85.053)"/>
    <path id="Path_16" data-name="Path 16" class="cls-7" d="M111.5,222.914a255.642,255.642,0,0,0,1.282-84.125,16.373,16.373,0,0,0-14.423-13.718h0a17.407,17.407,0,0,0-19.06,18.205,121.874,121.874,0,0,0,2.137,16.5C86.3,184.623,94.722,303.963,94.787,303.984a7.677,7.677,0,0,1-.171,1.709,9.865,9.865,0,0,1-2.009,3.825c-1.774,2.457-.684,4.124,2.97,7.009,3.056,2.415,1.453,6.645,4.573,7.137,4.316.684,7.244.363,7.628-.684.534-1.517-.705-1.645-4.359-3.5-2.8-1.41-3.141-10.086-3.162-13.462a16.112,16.112,0,0,1,.171-2.479Z" transform="translate(90.11 142.1)"/>
    <path id="Path_17" data-name="Path 17" class="cls-7" d="M101.118,229.158c6.923-20.342,18.953-85.386,16.539-103.741L101.2,124.049a18.171,18.171,0,0,0-18.227,12.863c-3.59,11.881-7.009,31.9-3.8,61.048,0,0,2.479,15.855,0,26.047-2.244,9.252-15.193,66.86-17.564,77.373a34.6,34.6,0,0,1-1.3,3.44,8.835,8.835,0,0,1-2.65,3.034c-2.329,1.944-1.688,3.825,1.154,7.521,2.372,3.1-.214,6.8,2.692,8.056,4.017,1.731,6.945,2.137,7.564,1.2.876-1.325-.278-1.773-3.376-4.444-1.218-1.047-1.111-4.744-.705-8.163a32.869,32.869,0,0,1,3.227-10.705C74.921,287.791,95.348,246.06,101.118,229.158Z" transform="translate(63.928 141.006)"/>
    <path id="Path_18" data-name="Path 18" class="cls-9" d="M125.322,240.826q-28.526,7.4-60.172,0c1.816-7.97,3.269-14.252,3.889-16.817,2.479-10.192,0-26.047,0-26.047-3.205-29.167.214-49.167,3.8-61.048A18.147,18.147,0,0,1,91.069,124.05l16.453,1.368v.107l6.88.641a16.351,16.351,0,0,1,14.423,13.718,255.651,255.651,0,0,1-1.282,84.125Z" transform="translate(74.062 141.005)"/>
    <path id="Path_19" data-name="Path 19" class="cls-10" d="M74.658,196.3c-2.115,4.936-4.1,9.979-5.919,15.086a107.136,107.136,0,0,0-1.09-13.419c-3.205-29.167.214-49.167,3.8-61.048A18.147,18.147,0,0,1,89.679,124.05l5.962.491h0l10.47.876v.107l6.88.641a16.351,16.351,0,0,1,14.423,13.718c.406,2.628.833,5.684,1.218,9.039C101.453,147.9,84.615,172.962,74.658,196.3Z" transform="translate(75.452 141.005)"/>
    <path id="Path_20" data-name="Path 20" class="cls-3" d="M144.137,101.484c2.5-12.735,5.043-45.962,5.043-45.962-1.282-1.795-6.667-4-8.355-1.774L130.312,99.176c-11.346,14.338-20.663,27.415-25.043,33.719a10.047,10.047,0,0,1-7.351,4.252A119.459,119.459,0,0,0,79.606,139.9c-27.992,7.244-16.517,17.586-16.517,17.586a41.47,41.47,0,0,1,8.355,11.816c3.59,7.65,8.184,17.458,10.9,23.227,1.132,3.654-2.222,14.423-3.4,18.056L76.465,218.2a2.189,2.189,0,0,0,1.346,2.756c12.607,4.359,38.013,5.021,54.253-.15a3.033,3.033,0,0,0,1.774-4.338l-12.03-32.778c-3.205-6.923-2.607-8.59-.342-12.671a10.075,10.075,0,0,0,.9-7.543,29.258,29.258,0,0,0-3.205-6.41,10.261,10.261,0,0,1,.769-11.9C129.2,133.792,141.808,113.364,144.137,101.484Z" transform="translate(69.072 60.044)"/>
    <path id="Path_21" data-name="Path 21" class="cls-7" d="M72.861,74.73C64.485,77.06,63.01,83.9,65.916,94.966c1.09,4.145,4.081,7.735,6.3,9.936a8.575,8.575,0,0,1,2.564,6.175l-.107,6.731c.363,6.133,3.974,8.526,8.355,8.547a8.1,8.1,0,0,0,5.876-2.714c1.709-1.923,1.068-4.872,0-7.2l-.962-1.645a4.563,4.563,0,0,1,1.645-6.368,16.805,16.805,0,0,0,4.722-3.633c1.09-1.3,1.774-11.069-2.692-21.218C86.985,73.085,81.237,72.423,72.861,74.73Z" transform="translate(73.381 83.72)"/>
    <path id="Path_22" data-name="Path 22" class="cls-7" d="M80.312,88.7a1.986,1.986,0,0,1-1.368,2.778h0a1.988,1.988,0,0,1-2.35-1.389l-1.859-8.269a1.216,1.216,0,0,1,.15-.9,1.288,1.288,0,0,1,.748-.534.925.925,0,0,1,1.068.534Z" transform="translate(84.926 91.358)"/>
    <path id="Path_23" data-name="Path 23" class="cls-7" d="M71.215,86.005c.705,2.564,1.538,5.791-.705,6.41s-5.791-3.4-6.5-5.962.556-3.59,2.8-4.209S70.489,83.462,71.215,86.005Z" transform="translate(72.548 93.365)"/>
    <path id="Path_24" data-name="Path 24" class="cls-8" d="M64.1,85.792c6.774-13.12,21.3-17.393,28.654-12.906,3.953,2.415,9.466,12.735.684,13.077a10.3,10.3,0,0,1-6-1.816,2.935,2.935,0,0,0-2.03-.406l-5.727,1.966a9.076,9.076,0,0,0-5.662,11.432l.556,1.688a1.025,1.025,0,0,1-1.453,1.2l-.342-.641a6.609,6.609,0,0,0-4.231-3.312C64.742,95.109,60.041,93.656,64.1,85.792Z" transform="translate(71.093 80.906)"/>
    <path id="Path_25" data-name="Path 25" class="cls-7" d="M77.048,159.5c-1.368-2.051-2.5-4.231-3.12-5a13.9,13.9,0,0,0-1.474-1.154c-.769-.6-2.051-1.389-2.393-2.286l-1.5-3.8c-.684-1.859-2.115-2.927-3.974-2.222h0c-2.009.748-2.265,2.8-1.3,4.7l1,2.671a11.755,11.755,0,0,1,.9,4.957c.214,3.483,2.393,6.859,4.4,9.423,1.261,1.6,4,1.838,7.65,1.966,1.795.064,4.594-.385,2.906-1.88-1.432-1.261-6.945-1.816-7.393-7.265-.021-.256-.021-.962.278-1.09.919-.363,1.838,1.6,2.671,2.436,1.154,1.175,2.329,1.368,2.885.983C79.121,161.6,78.01,160.955,77.048,159.5Z" transform="translate(71.331 164.635)"/>
    <g id="Group_7" data-name="Group 7" transform="translate(231.799 20.329)">
      <path id="Path_26" data-name="Path 26" class="cls-11" d="M157.733,140.96l-28.676,23.932a57.222,57.222,0,0,0-20.577,44v96.989h0a20.044,20.044,0,0,0,20.043-20.043V274.509a84.272,84.272,0,0,1,30.171-64.617l26.453-22.158Z" transform="translate(-108.48 139.921)"/>
      <path id="Path_27" data-name="Path 27" class="cls-12" d="M194.175,140.96l28.676,23.932a57.222,57.222,0,0,1,20.577,44v96.989h0a20.044,20.044,0,0,1-20.043-20.043V274.509a84.272,84.272,0,0,0-30.171-64.617L166.76,187.734Z" transform="translate(-42.228 139.921)"/>
      <path id="Path_28" data-name="Path 28" class="cls-11" d="M194.175,140.96l28.676,23.932a57.222,57.222,0,0,1,20.577,44v96.989h0a20.044,20.044,0,0,1-20.043-20.043V274.509a84.272,84.272,0,0,0-30.171-64.617L166.76,187.734Z" transform="translate(-42.228 139.921)"/>
      <path id="Path_29" data-name="Path 29" class="cls-13" d="M216.649,228.579H143.058a8.568,8.568,0,0,1-8.5-9.594l6.517-53.975h77.523l6.517,53.975A8.511,8.511,0,0,1,216.649,228.579Z" transform="translate(-78.912 167.261)"/>
      <path id="Path_30" data-name="Path 30" class="cls-13" d="M183.694,228.579H163.48V165.01h22.18l6.517,53.975A8.539,8.539,0,0,1,183.694,228.579Z" transform="translate(-45.957 167.261)"/>
      <path id="Path_31" data-name="Path 31" class="cls-6" d="M214.16,354.077a26.873,26.873,0,0,0,26.389-21.667c5.855-29.851,9.231-65.108,9.231-102.865,0-107.694-47.992-220.025-61.39-220.025-15.9,0-61.39,112.331-61.39,220.025,0,37.757,3.376,73.014,9.231,102.865a26.873,26.873,0,0,0,26.389,21.667Z" transform="translate(-87.427 -9.499)"/>
      <path id="Path_32" data-name="Path 32" class="cls-6" d="M220.16,98.923c-14.893-52.159-34.082-89.4-41.8-89.4-9.145,0-28.12,37.244-42.565,89.4Z" transform="translate(-77.423 -9.499)"/>
      <path id="Path_33" data-name="Path 33" class="cls-11" d="M214.1,85.6C199.929,40.536,183.347,9.51,176.3,9.51c-8.355,0-24.872,31.026-38.676,76.091Z" transform="translate(-75.354 -9.51)"/>
      <path id="Path_34" data-name="Path 34" class="cls-14" d="M141.22,77.413h8.205c7.65-24.936,11.09-42.543,17.436-59.061a1.194,1.194,0,0,0-2.137-1.047C158.378,28.16,150.6,46.814,141.22,77.413Z" transform="translate(-71.262 -1.322)"/>
      <path id="Path_35" data-name="Path 35" class="cls-15" d="M222.628,127.416a43.8,43.8,0,1,1-43.8-43.826A43.809,43.809,0,0,1,222.628,127.416Z" transform="translate(-78.31 74.703)"/>
      <path id="Path_36" data-name="Path 36" class="cls-13" d="M222.628,125.244a43.8,43.8,0,1,1-43.8-43.8A43.814,43.814,0,0,1,222.628,125.244Z" transform="translate(-78.31 72.259)"/>
      <path id="Path_37" data-name="Path 37" class="cls-16" d="M155.77,81.44a3.459,3.459,0,0,0-.47.021V169.07c.15,0,.32.021.47.021a43.826,43.826,0,0,0,0-87.651Z" transform="translate(-55.256 72.259)"/>
      <path id="Path_38" data-name="Path 38" class="cls-17" d="M201.448,117.889A29.979,29.979,0,1,1,171.469,87.91,29.975,29.975,0,0,1,201.448,117.889Z" transform="translate(-70.955 79.614)"/>
      <path id="Path_39" data-name="Path 39" class="cls-14" d="M203.66,216.534H147.569a9.356,9.356,0,0,1-9.359-9.359V194.76h74.809v12.415A9.356,9.356,0,0,1,203.66,216.534Z" transform="translate(-74.683 201.08)"/>
      <path id="Path_40" data-name="Path 40" class="cls-14" d="M172.455,216.534H165.66V194.76h16.154v12.415A9.356,9.356,0,0,1,172.455,216.534Z" transform="translate(-43.478 201.08)"/>
      <path id="Path_41" data-name="Path 41" class="cls-11" d="M162.268,307.766l-.449.556h0a28.965,28.965,0,0,1-7.415-18.462l-4.017-126.8a29.468,29.468,0,0,1,11.41-24.231l.021-.021h0a29.471,29.471,0,0,1,11.41,24.3L168.978,290.18A29.042,29.042,0,0,1,162.268,307.766Z" transform="translate(-60.856 137.477)"/>
      <path id="Path_42" data-name="Path 42" class="cls-18" d="M156.19,307.777l-.449.556h0l-.021-169.511.021-.021h0a29.47,29.47,0,0,1,11.41,24.3L162.9,290.17A29.052,29.052,0,0,1,156.19,307.777Z" transform="translate(-54.778 137.465)"/>
      <path id="Path_43" data-name="Path 43" class="cls-19" d="M185.764,90.27c.021.6.043,1.175.043,1.774a38.8,38.8,0,0,1-38.8,38.8c-1.175,0-2.35-.064-3.483-.171A29.958,29.958,0,1,0,185.764,90.27Z" transform="translate(-68.647 82.297)"/>
    </g>
    <path id="Path_44" data-name="Path 44" class="cls-3" d="M73.127,98.43c2.692-2.778,9.274-3.59,15.278-2.35,5.662,1.175-6.581,40.813-17.992,59.467a8.42,8.42,0,0,0-.983,6.71l12.158,43.078c-1.453,2.949-4.167,3.44-6.923,3.846l-20.47-44.958A20.473,20.473,0,0,1,53,150.7C56.567,136.871,64.964,106.828,73.127,98.43Z" transform="translate(59.525 108.59)"/>
    <g id="Group_10" data-name="Group 10" transform="translate(385.733 139.391)">
      <path id="Path_45" data-name="Path 45" class="cls-20" d="M238.764,206.635l3.227,12.65a5.064,5.064,0,0,0,.641,1.325l2.286,3.4a3.886,3.886,0,0,1-2.073,5.876s-4.615,1.624-9.381,3.184c-4.872,1.6-11,.256-11-1.026,0-2.863,2.671-.6,7.115-3.568,1.5-1,3.034-2.051,4.4-3.12,3.846-3.013.491-10.641-1.859-14.936-.855-1.538.043-5.406,1.774-5.769l1.111-.235A3.253,3.253,0,0,1,238.764,206.635Z" transform="translate(-132.843 92.921)"/>
      <path id="Path_46" data-name="Path 46" class="cls-21" d="M235.082,163.84c-.919-2.329-1.6-4.786-2.073-5.684a11.949,11.949,0,0,0-1.239-1.453c-.641-.769-1.774-1.838-1.923-2.821l-.684-4.124c-.3-2.009-1.5-3.376-3.5-3.077h0c-2.158.32-2.885,2.329-2.308,4.445l.427,2.906a12.808,12.808,0,0,1-.15,5.171c-.534,3.526.919,7.393,2.393,10.385.919,1.88,3.611,2.714,7.244,3.611,1.795.449,4.68.6,3.312-1.261-1.154-1.56-6.581-3.291-5.855-8.868.043-.278.171-.962.513-1.026.983-.171,1.5,2.009,2.137,3.013.9,1.41,2.051,1.859,2.671,1.6C236.727,166.383,235.745,165.507,235.082,163.84Z" transform="translate(-132.046 27.317)"/>
      <path id="Path_47" data-name="Path 47" class="cls-11" d="M282.148,97.912c-6.56,15.128-22.458,43.954-42.864,56.326-13.953,8.462-46.945,22.543-46.945,22.543a12.641,12.641,0,0,1-1.538-1.945,10,10,0,0,1-.94-2.329s41.667-23.718,47.5-29.7c5.833-5.962,26.817-41.689,32.65-47.65C276.806,88.211,285.8,89.429,282.148,97.912Z" transform="translate(-169.902 -36.33)"/>
      <path id="Path_48" data-name="Path 48" class="cls-21" d="M225.13,189.663l13.846-97.395L276.37,87.14l19.466,101.818Z" transform="translate(-129.808 -40.323)"/>
      <path id="Path_49" data-name="Path 49" class="cls-20" d="M272.863,205.719l3.782,12.564a5.837,5.837,0,0,0,.748,1.56l2.671,3.974a4.547,4.547,0,0,1-2.436,6.88s-5.406,1.9-10.983,3.739c-5.705,1.88-12.885.3-12.885-1.2,0-3.355,3.12-.684,8.334-4.188,1.752-1.175,3.568-2.393,5.171-3.654,4.487-3.526.577-12.457-2.18-17.5a3.088,3.088,0,0,1,2.073-4.487l1.3-.278A3.768,3.768,0,0,1,272.863,205.719Z" transform="translate(-97.262 91.444)"/>
      <path id="Path_50" data-name="Path 50" class="cls-3" d="M276.645,137.413l-41.432-3.483s-14.658,52.608-18.547,75.984c-2.821,16.923,22.821,82.352,22.821,82.352,2.543,1.111,5-.3,7.628-.962,0,0-7.778-57.8-5.128-71.86,2.756-14.68,24.872-44.424,26.3-52.2A176.963,176.963,0,0,1,276.645,137.413Z" transform="translate(-139.677 12.867)"/>
      <path id="Path_51" data-name="Path 51" class="cls-3" d="M243.979,141.157c-4.274,22.949-13.825,57.287,4.573,89.553,18.419,32.244,37.736,65.792,37.736,65.792a10.543,10.543,0,0,0,6.859-2.393s-3.227-14.616-7.885-31.689c-5.342-19.53-12.094-42.5-10.171-54.488,3.611-22.458,7.757-52.351,6.5-66.86C280.325,126.52,246.222,129.085,243.979,141.157Z" transform="translate(-115.558 9.657)"/>
      <path id="Path_52" data-name="Path 52" class="cls-17" d="M226.494,191.052a3.641,3.641,0,0,1-2.009-3.868l15.3-94.916,37.394-5.128,20.107,100.215a3.415,3.415,0,0,1-2.735,4.06,238.93,238.93,0,0,1-42.543,4.081C237.947,195.5,230.062,192.783,226.494,191.052Z" transform="translate(-130.594 -40.323)"/>
      <path id="Path_53" data-name="Path 53" class="cls-11" d="M245.741,111.984c4.551,12.329,11.817,36.689,7.65,58.1-5.876,30.15-13.4,42.351-3.633,49.381s28.526-4.7,29.06-8.611-3.654-51.924-8.4-72.736S252.365,87.39,252.365,87.39l-6.945.62C245.441,88.031,243.561,106.108,245.741,111.984Z" transform="translate(-107.576 -40.039)"/>
      <path id="Path_54" data-name="Path 54" class="cls-11" d="M250.913,89.12s-2.906,13.526-.641,33.654,7.5,81.454-10.812,90.728c-5.812,2.927-19.06-12.18-19.06-14.872,0-4.808,4.423-20.941,8.611-35.6,3.376-11.774,6.774-51.133,7.97-66.155a7.368,7.368,0,0,1,6.346-6.71Z" transform="translate(-135.185 -38.072)"/>
      <g id="Group_8" data-name="Group 8" transform="translate(100.45)">
        <path id="Path_55" data-name="Path 55" class="cls-8" d="M256.4,69.912s-.705,5.641,2.692,9.765-1.538,7.97-2.692,10.769.278,6.966-2.949,8.868-12.415,2.415-13.868-.94C238.129,95,246.035,67.989,256.4,69.912Z" transform="translate(-214.026 -60.019)"/>
        <path id="Path_56" data-name="Path 56" class="cls-8" d="M230.045,82.538c-.491,18.44,16.646,21.966,26.624,21.966S267.055,82.41,267.055,74.44s-7.842-9.21-17.821-9.21c-7.863,0-15.3,6.09-18.355,11.923C230.067,78.735,230.088,80.85,230.045,82.538Z" transform="translate(-224.682 -65.23)"/>
        <path id="Path_57" data-name="Path 57" class="cls-20" d="M247.367,68.56c8.355,0,11.453,5.94,11.624,16.923.064,4.124-1.795,8.184-3.291,10.791a8.207,8.207,0,0,0-.791,6.368l1.838,6.2c1.239,5.748-1.5,8.91-5.513,10.064a7.757,7.757,0,0,1-6.133-1c-2.073-1.346-2.244-4.231-1.859-6.667l.47-1.774a4.386,4.386,0,0,0-3.141-5.47c-6.432-1.41-7.351-8.1-9.06-18.5C229.7,74.65,239.012,68.56,247.367,68.56Z" transform="translate(-223.264 -61.444)"/>
        <path id="Path_58" data-name="Path 58" class="cls-8" d="M232.188,66.982l4.786,1.453a9.5,9.5,0,0,0,5.406.043l9.551-2.778c5.791,0,15.342,3.269,14.146,11.624l-1.068,5.9a5.335,5.335,0,0,1-4.786,4.338h0a1.881,1.881,0,0,1-3.7-.491h0a5.667,5.667,0,0,0-4.466-5.513,21.194,21.194,0,0,0-10.15.064c-6.645,1.795-13.633-2.329-14.316-9.167-.043-.427-.064-.876-.064-1.325C227.53,68.371,229.816,66.341,232.188,66.982Z" transform="translate(-227.53 -64.696)"/>
        <path id="Path_59" data-name="Path 59" class="cls-20" d="M242.09,79.035c0,2.543.94,4.615,3.4,4.615s4.017-3.5,4.017-6.047-1.581-3.184-4.017-3.184C243.03,74.42,242.09,76.493,242.09,79.035Z" transform="translate(-210.978 -54.783)"/>
        <path id="Path_60" data-name="Path 60" class="cls-20" d="M232.553,84.789a1.918,1.918,0,0,0,1.88,2.329h0a1.9,1.9,0,0,0,1.9-1.795V77.2a1.168,1.168,0,0,0-1.154-1.154.915.915,0,0,0-.9.726Z" transform="translate(-221.869 -52.93)"/>
      </g>
      <path id="Path_61" data-name="Path 61" class="cls-19" d="M243.921,95.97a1.148,1.148,0,0,1,1.09.791c1.282,4.081,7.094,22.949,8.4,33.12,1.068,8.291-2.286,22.885-4.231,30.3a11.588,11.588,0,0,1-5.278,6.987l-1.3.769a2.341,2.341,0,0,1-3.205-.833l-1.068-1.859a5.349,5.349,0,0,1-.363-4.594c2.265-5.876,7.8-21.5,7.329-31.859-.171-3.654-3.7-25.855-4.616-31.5a1.132,1.132,0,0,1,1.111-1.3Z" transform="translate(-115.628 -30.285)"/>
      <path id="Path_62" data-name="Path 62" class="cls-1" d="M244.107,94.726a1.142,1.142,0,0,1,1.068.812c1.2,4.124,6.581,23.1,7.65,33.291.876,8.312-2.8,22.821-4.893,30.193a11.4,11.4,0,0,1-5.427,6.859l-1.325.748A2.329,2.329,0,0,1,238,165.71l-1.026-1.88a5.384,5.384,0,0,1-.256-4.615c2.393-5.833,8.291-21.325,8.056-31.689-.085-3.654-3.12-25.919-3.889-31.6a1.135,1.135,0,0,1,1.154-1.282Z" transform="translate(-117.096 -31.797)"/>
      <path id="Path_63" data-name="Path 63" class="cls-10" d="M239.091,98.2h3.59a1.094,1.094,0,0,0,1.09-1.09v-3.59a1.094,1.094,0,0,0-1.09-1.09l-3.248-.342a1.8,1.8,0,0,0-1.453,1.453v3.59A1.124,1.124,0,0,0,239.091,98.2Z" transform="translate(-115.2 -34.696)"/>
      <path id="Path_64" data-name="Path 64" class="cls-6" d="M246.372,87.06l6.068,1.068s-1.2,9.786-6.047,17.094a.931.931,0,0,1-1.5.021L240.6,99.282a2.142,2.142,0,0,1-.107-2.329Z" transform="translate(-112.673 -40.414)"/>
      <path id="Path_65" data-name="Path 65" class="cls-6" d="M240.158,88.27l-6.047,1.987s-.192,6.047,4.466,12.992a.9.9,0,0,0,1.474-.021l3.526-5.47a2.194,2.194,0,0,0,.128-2.115Z" transform="translate(-119.6 -39.038)"/>
      <g id="Group_9" data-name="Group 9" transform="translate(0 45.556)">
        <path id="Path_66" data-name="Path 66" class="cls-3" d="M271.072,139.227v-8.953a3.766,3.766,0,0,0-3.761-3.761h-2.778a4.141,4.141,0,0,1-3.932-2.8,35.366,35.366,0,0,0-1.538-3.7,4.169,4.169,0,0,1,.812-4.765l1.966-1.966a3.753,3.753,0,0,0,0-5.321l-6.325-6.325a3.727,3.727,0,0,0-5.3,0l-1.966,1.966a4.169,4.169,0,0,1-4.765.812,35.73,35.73,0,0,0-3.718-1.538,4.169,4.169,0,0,1-2.8-3.932V96.171a3.766,3.766,0,0,0-3.761-3.761h-8.953a3.766,3.766,0,0,0-3.761,3.761v2.778a4.141,4.141,0,0,1-2.8,3.932,37.774,37.774,0,0,0-3.718,1.538,4.169,4.169,0,0,1-4.765-.812l-1.966-1.966a3.753,3.753,0,0,0-5.321,0l-6.325,6.325a3.753,3.753,0,0,0,0,5.321l1.966,1.966a4.169,4.169,0,0,1,.812,4.765,37.4,37.4,0,0,0-1.539,3.7,4.169,4.169,0,0,1-3.932,2.8h-2.778a3.766,3.766,0,0,0-3.761,3.761v8.953a3.766,3.766,0,0,0,3.761,3.761h2.778a4.14,4.14,0,0,1,3.932,2.8,37.772,37.772,0,0,0,1.539,3.718,4.169,4.169,0,0,1-.812,4.765l-1.966,1.966a3.753,3.753,0,0,0,0,5.321l6.325,6.325a3.753,3.753,0,0,0,5.321,0l1.966-1.966a4.169,4.169,0,0,1,4.765-.812,35.73,35.73,0,0,0,3.718,1.539,4.169,4.169,0,0,1,2.8,3.932v2.778a3.766,3.766,0,0,0,3.761,3.761h8.953a3.766,3.766,0,0,0,3.761-3.761v-2.778a4.14,4.14,0,0,1,2.8-3.932,35.72,35.72,0,0,0,3.718-1.538,4.169,4.169,0,0,1,4.765.812l1.966,1.966a3.727,3.727,0,0,0,5.3,0l6.325-6.325a3.753,3.753,0,0,0,0-5.321l-1.966-1.966a4.169,4.169,0,0,1-.812-4.765,35.729,35.729,0,0,0,1.538-3.718,4.169,4.169,0,0,1,3.932-2.8h2.778A3.766,3.766,0,0,0,271.072,139.227Zm-40.684,15.855a20.378,20.378,0,1,1,18.654-18.654A20.382,20.382,0,0,1,230.388,155.082Z" transform="translate(-173.87 -79.888)"/>
        <path id="Path_67" data-name="Path 67" class="cls-13" d="M290.244,147.213v-11.6a4.87,4.87,0,0,0-4.872-4.872h-3.611a5.39,5.39,0,0,1-5.086-3.611,47.378,47.378,0,0,0-1.987-4.808,5.4,5.4,0,0,1,1.047-6.175l2.543-2.543a4.862,4.862,0,0,0,0-6.88l-8.205-8.205a4.862,4.862,0,0,0-6.88,0l-2.543,2.543a5.4,5.4,0,0,1-6.175,1.047,42.923,42.923,0,0,0-4.808-1.987,5.39,5.39,0,0,1-3.611-5.086V91.422a4.87,4.87,0,0,0-4.872-4.872h-11.6a4.87,4.87,0,0,0-4.872,4.872v3.611a5.39,5.39,0,0,1-3.611,5.086,47.355,47.355,0,0,0-4.808,1.987,5.4,5.4,0,0,1-6.175-1.047l-2.543-2.543a4.862,4.862,0,0,0-6.88,0l-8.205,8.205a4.862,4.862,0,0,0,0,6.88l2.543,2.543a5.4,5.4,0,0,1,1.047,6.175,42.915,42.915,0,0,0-1.987,4.808A5.361,5.361,0,0,1,189,130.739h-3.611a4.87,4.87,0,0,0-4.872,4.872v11.6a4.87,4.87,0,0,0,4.872,4.872H189a5.39,5.39,0,0,1,5.086,3.611,47.371,47.371,0,0,0,1.987,4.808,5.4,5.4,0,0,1-1.047,6.175l-2.543,2.543a4.862,4.862,0,0,0,0,6.88l8.205,8.205a4.862,4.862,0,0,0,6.88,0l2.543-2.543a5.4,5.4,0,0,1,6.175-1.047,47.355,47.355,0,0,0,4.808,1.987,5.361,5.361,0,0,1,3.611,5.086V191.4a4.87,4.87,0,0,0,4.872,4.872h11.6a4.87,4.87,0,0,0,4.872-4.872v-3.611a5.39,5.39,0,0,1,3.611-5.086,47.372,47.372,0,0,0,4.808-1.987,5.4,5.4,0,0,1,6.175,1.047l2.543,2.543a4.862,4.862,0,0,0,6.88,0l8.205-8.205a4.862,4.862,0,0,0,0-6.88l-2.543-2.543a5.4,5.4,0,0,1-1.047-6.175,42.934,42.934,0,0,0,1.987-4.808,5.39,5.39,0,0,1,5.086-3.611h3.611A4.87,4.87,0,0,0,290.244,147.213Zm-52.715,20.535a26.412,26.412,0,1,1,24.189-24.188A26.4,26.4,0,0,1,237.529,167.748Z" transform="translate(-180.52 -86.55)"/>
        <circle id="Ellipse_10" data-name="Ellipse 10" class="cls-22" cx="35.214" cy="35.214" r="35.214" transform="matrix(0.664, -0.748, 0.748, 0.664, 5.163, 57.85)"/>
        <path id="Path_68" data-name="Path 68" class="cls-22" d="M189.71,130.964A35.219,35.219,0,0,1,224.924,95.75" transform="translate(-170.073 -76.092)"/>
      </g>
      <path id="Path_69" data-name="Path 69" class="cls-20" d="M224.8,108.922a3.4,3.4,0,0,0,.513-4.637l-1.3-1.731a11.073,11.073,0,0,1-2.564-6.859c.043-1.709-1.068-6.539-2.842-6.239-1.538.256.085,6.2-1.453,6.047-.727-.064-3.269-4.295-5.171-6.816-1.026-1.368-2.949-2.051-3.291-.812-.214.769-.983.9-1.944,1.581-.919.641-.427,4.957-.406,6.09.021,1.41-.513,1.838,1.688,4.359,1.688,1.9,9,6.667,9,6.667l3.227,2.222a3.427,3.427,0,0,0,4.551.128Z" transform="translate(-151.339 -40.225)"/>
      <path id="Path_70" data-name="Path 70" class="cls-11" d="M217.161,102.359s30.193,29,37.266,31.411c7.094,2.415,27.33-39.573,30.962-43.911,6-7.18,18.975.214,16.731,13.5-2.82,16.752-42.8,49.039-47.714,49.509s-42.415-44.21-42.415-44.21C212.4,106.612,214.17,104.5,217.161,102.359Z" transform="translate(-144.745 -40.414)"/>
    </g>
    <path id="Path_71" data-name="Path 71" class="cls-23" d="M577.561,225.063H15.522A3.461,3.461,0,0,1,12.06,221.6h0a3.461,3.461,0,0,1,3.462-3.462H577.583a3.461,3.461,0,0,1,3.462,3.462h0A3.479,3.479,0,0,1,577.561,225.063Z" transform="translate(13.71 247.987)"/>
  </g>
</svg>
