<svg xmlns="http://www.w3.org/2000/svg" viewBox="0 0 978.874 912.245">
  <defs>
    <style>
      .cls-1 {
        opacity: 0.497;
      }

      .cls-2 {
        fill: #fff;
      }

      .cls-3 {
        fill: #e6ba25;
      }

      .cls-4 {
        fill: #b12a2a;
      }

      .cls-5 {
        opacity: 0.12;
      }
    </style>
  </defs>
  <g id="Group_83" data-name="Group 83" class="cls-1">
    <g id="Group_55" data-name="Group 55">
      <path id="Path_142" data-name="Path 142" class="cls-2" d="M994.3,666.288c-18.215-40.341-49.932-70.629-89.054-85.773.21-5.721.337-11.442.337-17.079A437.169,437.169,0,0,0,65.818,393.279,437.292,437.292,0,0,0,638.674,966.135c2.356-1.01,4.753-2.019,7.109-3.113l19.771,15.649c19.182,15.186,38.2,29.7,47.787,36.976,6.731,5.09,12.409,9.339,16.448,12.325,2.776,2.061,5.216,3.87,7.488,5.342a29.01,29.01,0,0,0,16.658,5.3h.126a37.75,37.75,0,0,0,5.09-.294h2.356l1.767-1.052c4.754-1.809,10.1-5.721,21.328-13.966,2.608-1.893,6.436-4.753,11.19-8.287l4.5-3.365c4.8-3.576,10.264-7.656,16.153-12.157,22.463-16.995,52.835-40.468,70.166-55.906,46.147-41.1,79.715-80.893,102.641-121.613C1015.46,775.492,1017.311,717.314,994.3,666.288Z" transform="translate(-31.45 -126.37)"/>
    </g>
    <g id="Group_71" data-name="Group 71" transform="translate(32.138 28.899)">
      <g id="Group_66" data-name="Group 66">
        <g id="Group_65" data-name="Group 65">
          <g id="Group_64" data-name="Group 64">
            <g id="Group_63" data-name="Group 63">
              <g id="Group_58" data-name="Group 58">
                <g id="Group_56" data-name="Group 56">
                  <path id="Path_143" data-name="Path 143" class="cls-3" d="M447.257,949.574a407.066,407.066,0,1,1,158.884-32.1A405.582,405.582,0,0,1,447.257,949.574Zm0-775.278a367.1,367.1,0,1,0,259.59,107.521A364.748,364.748,0,0,0,447.257,174.3Z" transform="translate(-39.09 -133.24)"/>
                </g>
                <g id="Group_57" data-name="Group 57" transform="translate(387.597 20.528)">
                  <rect id="Rectangle_57" data-name="Rectangle 57" class="cls-3" width="41.099" height="775.278" transform="translate(0)"/>
                </g>
              </g>
              <g id="Group_59" data-name="Group 59" transform="translate(43.118 260.894)">
                <rect id="Rectangle_58" data-name="Rectangle 58" class="cls-3" width="736.577" height="41.099"/>
              </g>
              <g id="Group_60" data-name="Group 60" transform="translate(31.003 496.128)">
                <rect id="Rectangle_59" data-name="Rectangle 59" class="cls-3" width="749.407" height="41.099"/>
              </g>
              <g id="Group_61" data-name="Group 61" transform="translate(168.643 3.365)">
                <path id="Path_144" data-name="Path 144" class="cls-3" d="M300.532,942.76c-2.272-1.6-56.326-39.5-110.76-109.582-32.012-41.225-57.546-85.1-75.887-130.447a469.12,469.12,0,0,1-34.7-176.425,440.143,440.143,0,0,1,34.831-172.85C132.478,310,158.138,268.9,190.361,231.213c54.812-64.067,109.33-95.869,111.6-97.173l20.528,35.588c-.5.295-51.615,30.287-101.884,89.432-29.236,34.41-52.5,71.849-69.157,111.307a399.147,399.147,0,0,0-31.213,155.939,428.021,428.021,0,0,0,31.718,161.029c16.911,41.856,40.552,82.449,70.25,120.645,50.605,65.16,101.253,100.706,101.758,101.043Z" transform="translate(-79.18 -134.04)"/>
              </g>
              <g id="Group_62" data-name="Group 62" transform="translate(408.251 3.323)">
                <path id="Path_145" data-name="Path 145" class="cls-3" d="M159.613,942.792,136.14,909.056c.5-.379,51.994-36.64,102.6-102.137,29.488-38.154,52.919-78.664,69.7-120.351A427.97,427.97,0,0,0,339.866,526.3a398.921,398.921,0,0,0-31.592-156.78c-16.826-39.584-40.257-77.107-69.746-111.6-50.269-58.766-100.412-88-100.917-88.3l20.528-35.588c2.314,1.3,56.831,33.106,111.6,97.173a472.39,472.39,0,0,1,76.35,122.244A439.4,439.4,0,0,1,380.923,526.3a468.958,468.958,0,0,1-34.7,176.425c-18.341,45.347-43.875,89.264-75.887,130.447C215.939,903.292,161.884,941.194,159.613,942.792Z" transform="translate(-136.14 -134.03)"/>
              </g>
            </g>
          </g>
        </g>
      </g>
      <g id="Group_70" data-name="Group 70" transform="translate(467.055 442.784)">
        <g id="Group_69" data-name="Group 69" transform="translate(0)">
          <g id="Group_67" data-name="Group 67">
            <path id="Path_146" data-name="Path 146" class="cls-4" d="M480.721,239.428c-39.837-3.491-90.106,17.878-102.221,52.414-11.779-34.62-72.816-56.158-112.7-53.045C160.6,247,124.379,365.963,168.591,446.309c23.767,43.244,58.093,81.1,95.532,115.135,31.381,28.479,112.316,89.012,112.569,88.8.252.21,81.819-59.523,113.452-87.75,37.818-33.7,72.48-71.218,96.71-114.209C631.823,368.276,585.844,248.6,480.721,239.428Z" transform="translate(-150.119 -238.499)"/>
          </g>
          <g id="Group_68" data-name="Group 68" class="cls-5" transform="translate(156.112 164.86)">
            <path id="Path_147" data-name="Path 147" class="cls-4" d="M445.053,330.777a577.231,577.231,0,0,1-89.937,87.876c-31.97,24.945-69.451,46.609-110.55,53.718a142.411,142.411,0,0,1-57.336-1.514c33.4,26.46,69.746,53.508,69.914,53.382.252.21,81.818-59.524,113.452-87.75,37.818-33.7,72.48-71.218,96.71-114.209a133.851,133.851,0,0,0,15.4-44.59A427.041,427.041,0,0,1,445.053,330.777Z" transform="translate(-187.23 -277.69)"/>
          </g>
        </g>
      </g>
    </g>
  </g>
</svg>
